<svg version="1.1" xmlns="http://www.w3.org/2000/svg" viewBox="0 0 429.0482204309269 127.73054649984216" width="429.0482204309269" height="127.73054649984216" class="excalidraw-svg"><!-- svg-source:excalidraw --><metadata></metadata><defs><style class="style-fonts">
      </style></defs><rect x="0" y="0" width="429.0482204309269" height="127.73054649984216" fill="#ffffff"></rect><g stroke-linecap="round"><g transform="translate(10.64034927040339 112.15508492445886) rotate(0 203.34253023414288 2.3612740610470415)"><path d="M-0.64 -0.7 C2.48 -0.32, 11.93 0.98, 19.03 1.44 C26.13 1.89, 34.62 2.07, 41.97 2.05 C49.31 2.02, 57.54 0.79, 63.1 1.31 C68.65 1.83, 70.96 5.1, 75.29 5.18 C79.61 5.26, 82.09 2.32, 89.05 1.8 C96.01 1.28, 108.96 2.21, 117.05 2.06 C125.13 1.9, 128.08 1.11, 137.55 0.85 C147.02 0.59, 163.53 0.68, 173.88 0.5 C184.22 0.32, 189.85 -0.39, 199.63 -0.24 C209.41 -0.09, 223.75 1.01, 232.55 1.39 C241.35 1.78, 243.47 1.68, 252.44 2.09 C261.42 2.5, 277.57 4.07, 286.41 3.85 C295.25 3.63, 299.81 0.78, 305.5 0.75 C311.19 0.72, 312.42 3.31, 320.53 3.68 C328.64 4.04, 343.94 3.16, 354.15 2.95 C364.37 2.75, 373.16 2.5, 381.84 2.43 C390.52 2.37, 402.31 2.53, 406.26 2.57 M1.22 1.55 C4.24 2.17, 11.91 2.52, 18.54 2.79 C25.18 3.05, 33.57 3.24, 41.04 3.16 C48.52 3.07, 57.88 1.87, 63.41 2.27 C68.94 2.67, 70.23 5.77, 74.22 5.57 C78.22 5.37, 80.09 1.85, 87.37 1.06 C94.66 0.28, 109.75 0.98, 117.94 0.84 C126.14 0.69, 126.95 0.4, 136.55 0.2 C146.16 -0.01, 165.47 -0.75, 175.58 -0.38 C185.69 0, 188.16 2.5, 197.19 2.45 C206.23 2.4, 220.78 -0.58, 229.8 -0.66 C238.82 -0.73, 241.87 1.32, 251.31 2 C260.76 2.68, 277.06 3.74, 286.48 3.43 C295.91 3.11, 302.17 0.14, 307.84 0.12 C313.52 0.1, 313.17 2.65, 320.52 3.32 C327.86 3.99, 341.92 4.23, 351.91 4.14 C361.91 4.04, 371.07 2.99, 380.49 2.73 C389.9 2.47, 403.96 2.59, 408.41 2.56" stroke="#1e1e1e" stroke-width="1" fill="none"></path></g></g><mask></mask><g stroke-linecap="round" transform="translate(114.3306868114024 65.85939409727479) rotate(0 7.490559580545096 7.530617274585296)"><path d="M5.57 0.48 C7.11 0.16, 9.63 0.65, 11.04 1.37 C12.45 2.1, 13.47 3.38, 14.05 4.82 C14.63 6.26, 15.05 8.55, 14.53 10.02 C14.01 11.49, 12.26 12.88, 10.95 13.64 C9.64 14.41, 8.23 14.78, 6.67 14.63 C5.1 14.49, 2.64 13.94, 1.57 12.77 C0.5 11.6, 0.28 9.3, 0.24 7.61 C0.21 5.92, 0.46 3.93, 1.35 2.64 C2.25 1.35, 4.83 0.31, 5.62 -0.15 C6.4 -0.6, 5.95 -0.32, 6.06 -0.08 M8.69 -0.4 C10.01 -0.26, 11.33 1.58, 12.29 2.9 C13.25 4.22, 14.24 6.07, 14.45 7.54 C14.66 9, 14.36 10.36, 13.56 11.7 C12.76 13.04, 11.31 15.22, 9.66 15.58 C8 15.94, 5.19 14.74, 3.65 13.88 C2.1 13.03, 1.06 11.92, 0.4 10.47 C-0.27 9.02, -0.91 6.76, -0.34 5.18 C0.23 3.59, 2.37 1.78, 3.82 0.97 C5.27 0.15, 7.68 0.28, 8.37 0.27 C9.06 0.26, 7.88 0.84, 7.97 0.93" stroke="#1e1e1e" stroke-width="1" fill="none"></path></g><g stroke-linecap="round"><g transform="translate(118.0797847299789 80.52006637516163) rotate(0 -0.9673389195433231 6.751569658456162)"><path d="M-0.45 -0.46 C-0.81 0.87, -1.84 5.09, -1.93 7.42 C-2.03 9.75, -1.2 12.57, -1.02 13.51 M0.32 0.49 C-0.13 1.92, -2.11 5.62, -2.36 7.89 C-2.61 10.17, -1.22 13.21, -1.18 14.12" stroke="#1e1e1e" stroke-width="1" fill="none"></path></g></g><mask></mask><g stroke-linecap="round"><g transform="translate(116.32062103617356 94.668991699978) rotate(0 -2.5905779501767086 8.544340356097578)"><path d="M0 -0.43 C-0.48 1.2, -2.55 6.46, -3.33 9.3 C-4.1 12.15, -4.36 15.37, -4.65 16.66 M-0.66 0.54 C-1.14 2.3, -2.9 7.26, -3.58 10.01 C-4.25 12.76, -4.5 15.79, -4.73 17.03" stroke="#1e1e1e" stroke-width="1" fill="none"></path></g></g><mask></mask><g stroke-linecap="round"><g transform="translate(117.80348945456903 94.79482152293636) rotate(0 2.645387043887993 8.95799777694694)"><path d="M0.36 0.01 C1.19 1.77, 4.18 7.17, 5.01 10.14 C5.85 13.11, 5.31 16.63, 5.38 17.83 M-0.12 -0.46 C0.69 1.4, 3.99 7.48, 4.85 10.62 C5.72 13.76, 4.95 17.22, 5.08 18.39" stroke="#1e1e1e" stroke-width="1" fill="none"></path></g></g><mask></mask><g stroke-linecap="round"><g transform="translate(119.29753934550186 88.42797608063702) rotate(33.312825452582764 5.95565692366403 -4.659337053396563)"><path d="M0.53 -0.43 C1.81 -0.98, 6.1 -1.72, 8.02 -3.29 C9.95 -4.86, 11.47 -8.9, 12.06 -9.86 M0.14 0.53 C1.32 0.07, 5.7 -0.95, 7.64 -2.63 C9.58 -4.31, 11.14 -8.3, 11.79 -9.54" stroke="#1e1e1e" stroke-width="1" fill="none"></path></g></g><mask></mask><g stroke-linecap="round"><g transform="translate(115.85791202003087 85.87454494540553) rotate(0 7.369303606437796 2.85508248366477)"><path d="M0.09 -0.08 C1.08 0.85, 4.06 4.25, 6.45 5.17 C8.84 6.09, 13.11 5.5, 14.42 5.44 M-0.52 -0.6 C0.36 0.41, 3.69 4.74, 6.1 5.59 C8.5 6.44, 12.55 4.59, 13.91 4.51" stroke="#1e1e1e" stroke-width="1" fill="none"></path></g></g><mask></mask><g stroke-linecap="round"><g transform="translate(141.19719455406022 67.17652954401673) rotate(0 72.25135331574685 -24.349220609994475)"><path d="M0 0 C2.73 -3.08, 10.87 -13.05, 16.37 -18.47 C21.86 -23.89, 27.13 -28.47, 32.96 -32.51 C38.78 -36.55, 44.26 -40, 51.31 -42.7 C58.36 -45.4, 67.39 -48.24, 75.28 -48.7 C83.17 -49.16, 91.44 -47.61, 98.66 -45.44 C105.88 -43.27, 112.58 -39.42, 118.62 -35.68 C124.65 -31.95, 131.24 -25.98, 134.86 -23.02 C138.48 -20.07, 138.71 -19.43, 140.32 -17.95 C141.92 -16.46, 143.81 -14.76, 144.5 -14.12" stroke="#1e1e1e" stroke-width="1.5" fill="none" stroke-dasharray="1.5 7"></path></g></g><mask></mask><g stroke-linecap="round" transform="translate(145.4019644191132 57.522176638502) rotate(0 2.7365412146045998 2.878082055751136)"><path d="M1.37 0 C2.29 0, 3.22 0, 4.1 0 C5.02 0, 5.47 0.46, 5.47 1.37 C5.47 2.04, 5.47 2.72, 5.47 4.39 C5.47 5.3, 5.02 5.76, 4.1 5.76 C3.24 5.76, 2.37 5.76, 1.37 5.76 C0.46 5.76, 0 5.3, 0 4.39 C0 3.29, 0 2.18, 0 1.37 C0 0.46, 0.46 0, 1.37 0" stroke="none" stroke-width="0" fill="#ffffff"></path><path d="M1.37 0 C2.08 0, 2.79 0, 4.1 0 M1.37 0 C2.25 0, 3.13 0, 4.1 0 M4.1 0 C5.02 0, 5.47 0.46, 5.47 1.37 M4.1 0 C5.02 0, 5.47 0.46, 5.47 1.37 M5.47 1.37 C5.47 2.04, 5.47 2.71, 5.47 4.39 M5.47 1.37 C5.47 1.99, 5.47 2.62, 5.47 4.39 M5.47 4.39 C5.47 5.3, 5.02 5.76, 4.1 5.76 M5.47 4.39 C5.47 5.3, 5.02 5.76, 4.1 5.76 M4.1 5.76 C3.51 5.76, 2.91 5.76, 1.37 5.76 M4.1 5.76 C3.4 5.76, 2.7 5.76, 1.37 5.76 M1.37 5.76 C0.46 5.76, 0 5.3, 0 4.39 M1.37 5.76 C0.46 5.76, 0 5.3, 0 4.39 M0 4.39 C0 3.48, 0 2.58, 0 1.37 M0 4.39 C0 3.76, 0 3.14, 0 1.37 M0 1.37 C0 0.46, 0.46 0, 1.37 0 M0 1.37 C0 0.46, 0.46 0, 1.37 0" stroke="#ffffff" stroke-width="1" fill="none"></path></g><g stroke-linecap="round" transform="translate(155.78194431486793 44.264110367380624) rotate(0 2.7365412146045998 2.878082055751136)"><path d="M1.37 0 C2.13 0, 2.89 0, 4.1 0 C5.02 0, 5.47 0.46, 5.47 1.37 C5.47 2.16, 5.47 2.94, 5.47 4.39 C5.47 5.3, 5.02 5.76, 4.1 5.76 C3.13 5.76, 2.16 5.76, 1.37 5.76 C0.46 5.76, 0 5.3, 0 4.39 C0 3.47, 0 2.55, 0 1.37 C0 0.46, 0.46 0, 1.37 0" stroke="none" stroke-width="0" fill="#ffffff"></path><path d="M1.37 0 C2.41 0, 3.44 0, 4.1 0 M1.37 0 C2.41 0, 3.46 0, 4.1 0 M4.1 0 C5.02 0, 5.47 0.46, 5.47 1.37 M4.1 0 C5.02 0, 5.47 0.46, 5.47 1.37 M5.47 1.37 C5.47 2.03, 5.47 2.7, 5.47 4.39 M5.47 1.37 C5.47 2.12, 5.47 2.88, 5.47 4.39 M5.47 4.39 C5.47 5.3, 5.02 5.76, 4.1 5.76 M5.47 4.39 C5.47 5.3, 5.02 5.76, 4.1 5.76 M4.1 5.76 C3.48 5.76, 2.85 5.76, 1.37 5.76 M4.1 5.76 C3.43 5.76, 2.76 5.76, 1.37 5.76 M1.37 5.76 C0.46 5.76, 0 5.3, 0 4.39 M1.37 5.76 C0.46 5.76, 0 5.3, 0 4.39 M0 4.39 C0 3.51, 0 2.62, 0 1.37 M0 4.39 C0 3.63, 0 2.88, 0 1.37 M0 1.37 C0 0.46, 0.46 0, 1.37 0 M0 1.37 C0 0.46, 0.46 0, 1.37 0" stroke="#ffffff" stroke-width="1" fill="none"></path></g><g stroke-linecap="round" transform="translate(169.27592206700305 33.41231614882943) rotate(0 2.7365412146045998 2.878082055751136)"><path d="M1.37 0 C2.44 0, 3.51 0, 4.1 0 C5.02 0, 5.47 0.46, 5.47 1.37 C5.47 2.39, 5.47 3.42, 5.47 4.39 C5.47 5.3, 5.02 5.76, 4.1 5.76 C3.43 5.76, 2.75 5.76, 1.37 5.76 C0.46 5.76, 0 5.3, 0 4.39 C0 3.47, 0 2.54, 0 1.37 C0 0.46, 0.46 0, 1.37 0" stroke="none" stroke-width="0" fill="#ffffff"></path><path d="M1.37 0 C2.05 0, 2.73 0, 4.1 0 M1.37 0 C2.25 0, 3.14 0, 4.1 0 M4.1 0 C5.02 0, 5.47 0.46, 5.47 1.37 M4.1 0 C5.02 0, 5.47 0.46, 5.47 1.37 M5.47 1.37 C5.47 2.28, 5.47 3.19, 5.47 4.39 M5.47 1.37 C5.47 2.33, 5.47 3.29, 5.47 4.39 M5.47 4.39 C5.47 5.3, 5.02 5.76, 4.1 5.76 M5.47 4.39 C5.47 5.3, 5.02 5.76, 4.1 5.76 M4.1 5.76 C3.25 5.76, 2.4 5.76, 1.37 5.76 M4.1 5.76 C3.42 5.76, 2.73 5.76, 1.37 5.76 M1.37 5.76 C0.46 5.76, 0 5.3, 0 4.39 M1.37 5.76 C0.46 5.76, 0 5.3, 0 4.39 M0 4.39 C0 3.35, 0 2.31, 0 1.37 M0 4.39 C0 3.19, 0 2, 0 1.37 M0 1.37 C0 0.46, 0.46 0, 1.37 0 M0 1.37 C0 0.46, 0.46 0, 1.37 0" stroke="#ffffff" stroke-width="1" fill="none"></path></g><g stroke-linecap="round" transform="translate(183.6191621444794 23.881607217646945) rotate(0 2.7365412146045998 2.878082055751136)"><path d="M1.37 0 C2.43 0, 3.5 0, 4.1 0 C5.02 0, 5.47 0.46, 5.47 1.37 C5.47 1.99, 5.47 2.6, 5.47 4.39 C5.47 5.3, 5.02 5.76, 4.1 5.76 C3.4 5.76, 2.7 5.76, 1.37 5.76 C0.46 5.76, 0 5.3, 0 4.39 C0 3.24, 0 2.1, 0 1.37 C0 0.46, 0.46 0, 1.37 0" stroke="none" stroke-width="0" fill="#ffffff"></path><path d="M1.37 0 C2.39 0, 3.41 0, 4.1 0 M1.37 0 C2.06 0, 2.75 0, 4.1 0 M4.1 0 C5.02 0, 5.47 0.46, 5.47 1.37 M4.1 0 C5.02 0, 5.47 0.46, 5.47 1.37 M5.47 1.37 C5.47 2.48, 5.47 3.59, 5.47 4.39 M5.47 1.37 C5.47 2.5, 5.47 3.62, 5.47 4.39 M5.47 4.39 C5.47 5.3, 5.02 5.76, 4.1 5.76 M5.47 4.39 C5.47 5.3, 5.02 5.76, 4.1 5.76 M4.1 5.76 C3.24 5.76, 2.38 5.76, 1.37 5.76 M4.1 5.76 C3.5 5.76, 2.9 5.76, 1.37 5.76 M1.37 5.76 C0.46 5.76, 0 5.3, 0 4.39 M1.37 5.76 C0.46 5.76, 0 5.3, 0 4.39 M0 4.39 C0 3.39, 0 2.4, 0 1.37 M0 4.39 C0 3.22, 0 2.06, 0 1.37 M0 1.37 C0 0.46, 0.46 0, 1.37 0 M0 1.37 C0 0.46, 0.46 0, 1.37 0" stroke="#ffffff" stroke-width="1" fill="none"></path></g><g stroke-linecap="round" transform="translate(199.47222014982782 17.842348465005102) rotate(0 2.7365412146045998 2.878082055751136)"><path d="M1.37 0 C2.31 0, 3.26 0, 4.1 0 C5.02 0, 5.47 0.46, 5.47 1.37 C5.47 2.44, 5.47 3.51, 5.47 4.39 C5.47 5.3, 5.02 5.76, 4.1 5.76 C3.52 5.76, 2.94 5.76, 1.37 5.76 C0.46 5.76, 0 5.3, 0 4.39 C0 3.48, 0 2.58, 0 1.37 C0 0.46, 0.46 0, 1.37 0" stroke="none" stroke-width="0" fill="#ffffff"></path><path d="M1.37 0 C2.04 0, 2.71 0, 4.1 0 M1.37 0 C1.97 0, 2.58 0, 4.1 0 M4.1 0 C5.02 0, 5.47 0.46, 5.47 1.37 M4.1 0 C5.02 0, 5.47 0.46, 5.47 1.37 M5.47 1.37 C5.47 2.22, 5.47 3.07, 5.47 4.39 M5.47 1.37 C5.47 2.06, 5.47 2.75, 5.47 4.39 M5.47 4.39 C5.47 5.3, 5.02 5.76, 4.1 5.76 M5.47 4.39 C5.47 5.3, 5.02 5.76, 4.1 5.76 M4.1 5.76 C3.52 5.76, 2.94 5.76, 1.37 5.76 M4.1 5.76 C3.31 5.76, 2.51 5.76, 1.37 5.76 M1.37 5.76 C0.46 5.76, 0 5.3, 0 4.39 M1.37 5.76 C0.46 5.76, 0 5.3, 0 4.39 M0 4.39 C0 3.55, 0 2.71, 0 1.37 M0 4.39 C0 3.55, 0 2.7, 0 1.37 M0 1.37 C0 0.46, 0.46 0, 1.37 0 M0 1.37 C0 0.46, 0.46 0, 1.37 0" stroke="#ffffff" stroke-width="1" fill="none"></path></g><g stroke-linecap="round" transform="translate(213.86016796941047 10) rotate(0 48.22274546054522 35.52463195139772)"><path d="M17.76 0 C40.57 0, 63.38 0, 78.68 0 C90.52 0, 96.45 5.92, 96.45 17.76 C96.45 25.2, 96.45 32.64, 96.45 53.29 C96.45 65.13, 90.52 71.05, 78.68 71.05 C56.87 71.05, 35.06 71.05, 17.76 71.05 C5.92 71.05, 0 65.13, 0 53.29 C0 44.56, 0 35.84, 0 17.76 C0 5.92, 5.92 0, 17.76 0" stroke="none" stroke-width="0" fill="#ffffff"></path><path d="M17.76 0 C36.34 0, 54.92 0, 78.68 0 M17.76 0 C36.11 0, 54.45 0, 78.68 0 M78.68 0 C90.52 0, 96.45 5.92, 96.45 17.76 M78.68 0 C90.52 0, 96.45 5.92, 96.45 17.76 M96.45 17.76 C96.45 25.48, 96.45 33.19, 96.45 53.29 M96.45 17.76 C96.45 28.82, 96.45 39.87, 96.45 53.29 M96.45 53.29 C96.45 65.13, 90.52 71.05, 78.68 71.05 M96.45 53.29 C96.45 65.13, 90.52 71.05, 78.68 71.05 M78.68 71.05 C57.8 71.05, 36.91 71.05, 17.76 71.05 M78.68 71.05 C57.68 71.05, 36.67 71.05, 17.76 71.05 M17.76 71.05 C5.92 71.05, 0 65.13, 0 53.29 M17.76 71.05 C5.92 71.05, 0 65.13, 0 53.29 M0 53.29 C0 41.66, 0 30.02, 0 17.76 M0 53.29 C0 39.41, 0 25.53, 0 17.76 M0 17.76 C0 5.92, 5.92 0, 17.76 0 M0 17.76 C0 5.92, 5.92 0, 17.76 0" stroke="#ffffff" stroke-width="1" fill="none"></path></g><g stroke-linecap="round" transform="translate(219.88031434724937 13.667483264956644) rotate(0 5.21886549049826 5.21886549049826)"><path d="M1.5 1.31 C1.5 1.31, 1.5 1.31, 1.5 1.31 M1.5 1.31 C1.5 1.31, 1.5 1.31, 1.5 1.31 M1.9 6.95 C2.93 4.94, 4.81 3.96, 7.15 0.91 M1.9 6.95 C2.91 5.6, 3.9 4.32, 7.15 0.91 M4.26 10.33 C6.18 7.95, 7.87 5.87, 10.17 3.54 M4.26 10.33 C5.94 8.69, 7.33 6.45, 10.17 3.54 M1.18 7.79 C1.18 7.79, 1.18 7.79, 1.18 7.79 M1.18 7.79 C1.18 7.79, 1.18 7.79, 1.18 7.79 M8.33 8.7 C6.6 7.1, 5.1 5.68, 1.54 2.8 M8.33 8.7 C6.78 7.43, 5.34 6.09, 1.54 2.8 M10.96 5.68 C8.98 4.59, 7.69 2.87, 4.17 -0.22 M10.96 5.68 C8.13 3.59, 5.67 1.16, 4.17 -0.22" stroke="#1e1e1e" stroke-width="0.5" fill="none"></path><path d="M4.34 0.19 C5.43 0, 7.31 0.43, 8.29 1.06 C9.26 1.68, 9.94 2.91, 10.21 3.95 C10.48 4.99, 10.32 6.33, 9.89 7.31 C9.46 8.29, 8.51 9.39, 7.63 9.83 C6.75 10.27, 5.6 10.24, 4.59 9.95 C3.58 9.67, 2.24 8.84, 1.55 8.11 C0.87 7.38, 0.55 6.63, 0.49 5.56 C0.43 4.48, 0.53 2.62, 1.2 1.66 C1.87 0.7, 3.89 0.1, 4.5 -0.19 C5.12 -0.49, 4.9 -0.23, 4.89 -0.12 M5.7 0.12 C6.65 -0.08, 7.75 0.37, 8.59 1.07 C9.44 1.76, 10.65 3.16, 10.78 4.29 C10.91 5.42, 10.09 6.75, 9.39 7.85 C8.68 8.95, 7.65 10.47, 6.54 10.89 C5.43 11.32, 3.78 10.86, 2.73 10.4 C1.67 9.94, 0.61 9.27, 0.19 8.12 C-0.22 6.98, -0.09 4.67, 0.22 3.53 C0.53 2.38, 1.21 1.79, 2.06 1.24 C2.92 0.7, 4.82 0.47, 5.37 0.26 C5.91 0.05, 5.21 -0.17, 5.31 -0.01" stroke="#1e1e1e" stroke-width="1" fill="none"></path></g><g stroke-linecap="round"><g transform="translate(332.0876096227677 102.39569688766551) rotate(0 0 5.109303535187643)"><path d="M0 0 C-0.04 3.51, -0.29 6.55, 0 10.22 M0 0 C0.21 3.26, 0.15 6.16, 0 10.22" stroke="#1e1e1e" stroke-width="1" fill="none"></path></g></g><mask></mask><g stroke-linecap="round"><g transform="translate(343.42836147004095 102.60759914484768) rotate(0 0 4.956260620972665)"><path d="M0 0 C-0.22 3.05, -0.01 6.18, 0 9.91 M0 0 C0.08 3.83, 0.16 7.57, 0 9.91" stroke="#1e1e1e" stroke-width="1" fill="none"></path></g></g><mask></mask><g stroke-linecap="round"><g transform="translate(330.3198435112921 99.75027791126297) rotate(0 6.962568150741333 -0.03771163270978395)"><path d="M0.19 -0.01 C2.55 0.11, 12.11 0.31, 14.45 0.38 M-0.37 -0.49 C1.93 -0.48, 11.89 -0.36, 14.3 -0.36" stroke="#1e1e1e" stroke-width="1" fill="none"></path></g></g><mask></mask><g stroke-linecap="round"><g transform="translate(330.2971314658744 99.89399235295753) rotate(0 -0.10725900545702416 1.1798146915828633)"><path d="M0.34 0.29 C0.32 0.74, 0.07 2.3, 0 2.65 M0.09 0.13 C0.03 0.48, -0.11 1.73, -0.16 2.18" stroke="#1e1e1e" stroke-width="1" fill="none"></path></g></g><mask></mask><g stroke-linecap="round"><g transform="translate(344.83290712150267 99.25069270924462) rotate(0 0.07150273045282063 1.7518447181684884)"><path d="M0.22 0.3 C0.21 0.84, 0.24 3.06, 0.28 3.59 M-0.1 0.14 C-0.17 0.55, -0.01 2.39, 0.07 3.01" stroke="#1e1e1e" stroke-width="1" fill="none"></path></g></g><mask></mask><g stroke-linecap="round"><g transform="translate(330.01110745132235 101.75309607658306) rotate(0 7.400645526757117 0.14300709749825824)"><path d="M0.21 0.14 C2.7 0.1, 12.77 0.16, 15.28 0.26 M-0.35 -0.27 C2.08 0.03, 12.5 0.91, 15.09 0.95" stroke="#1e1e1e" stroke-width="1" fill="none"></path></g></g><mask></mask><g stroke-linecap="round"><g transform="translate(340.8089284984527 102.52519390906855) rotate(0 0 4.956260620972665)"><path d="M0 0 C-0.01 3.63, 0.29 6.67, 0 9.91 M0 0 C-0.15 2.36, 0.02 4.44, 0 9.91" stroke="#1e1e1e" stroke-width="1" fill="none"></path></g></g><mask></mask><g stroke-linecap="round"><g transform="translate(334.37448404597114 102.80773600031162) rotate(0 0 4.956260620972665)"><path d="M0 0 C0.28 3.8, -0.25 7.35, 0 9.91 M0 0 C0.03 3.16, -0.16 6.19, 0 9.91" stroke="#1e1e1e" stroke-width="1" fill="none"></path></g></g><mask></mask><g stroke-linecap="round"><g transform="translate(337.89098172292427 102.66646495469007) rotate(0 0 4.956260620972665)"><path d="M0 0 C-0.22 3.51, 0.09 7.41, 0 9.91 M0 0 C-0.13 3.74, 0.13 7.81, 0 9.91" stroke="#1e1e1e" stroke-width="1" fill="none"></path></g></g><mask></mask><g stroke-linecap="round"><g transform="translate(330.4849989909409 113.16215760750922) rotate(0 6.881314382176129 -0.03727153471575706)"><path d="M0.14 -0.15 C2.51 -0.21, 11.78 -0.25, 14.11 -0.26 M-0.46 -0.7 C1.88 -0.69, 11.46 0.17, 13.86 0.35" stroke="#1e1e1e" stroke-width="1" fill="none"></path></g></g><mask></mask><g stroke-linecap="round"><g transform="translate(330.4625519970446 113.30419488932083) rotate(0 -0.10600728364730116 1.166046152758652)"><path d="M-0.09 0.23 C-0.16 0.64, -0.3 2.27, -0.33 2.57 M0.5 0.03 C0.37 0.34, -0.5 1.7, -0.67 2.07" stroke="#1e1e1e" stroke-width="1" fill="none"></path></g></g><mask></mask><g stroke-linecap="round"><g transform="translate(344.82869390181156 112.6684026077244) rotate(0 0.07066828744468978 1.7314005397833787)"><path d="M0.23 -0.12 C0.27 0.47, 0.45 2.86, 0.38 3.41 M-0.09 -0.48 C-0.07 0.16, 0.12 3.18, 0.22 3.83" stroke="#1e1e1e" stroke-width="1" fill="none"></path></g></g><mask></mask><g stroke-linecap="round"><g transform="translate(330.17986590731846 115.14160271275153) rotate(0 7.314279357572815 0.14133819238282763)"><path d="M-0.18 0.36 C2.27 0.27, 12.14 -0.24, 14.55 -0.22 M0.72 0.08 C3.11 0, 11.64 0.32, 14.07 0.22" stroke="#1e1e1e" stroke-width="1" fill="none"></path></g></g><mask></mask><g stroke-linecap="round"><g transform="translate(308.9231747194192 100.0421353117361) rotate(0 0 5.109303535187643)"><path d="M0 0 C-0.19 1.98, -0.21 4.55, 0 10.22 M0 0 C-0.25 3.07, -0.1 5.81, 0 10.22" stroke="#1e1e1e" stroke-width="1" fill="none"></path></g></g><mask></mask><g stroke-linecap="round"><g transform="translate(320.26392656669236 100.25403756891825) rotate(0 0 4.956260620972665)"><path d="M0 0 C-0.15 3.14, -0.04 6.71, 0 9.91 M0 0 C-0.08 3.47, 0.01 7.13, 0 9.91" stroke="#1e1e1e" stroke-width="1" fill="none"></path></g></g><mask></mask><g stroke-linecap="round"><g transform="translate(307.1554086079436 97.39671633533354) rotate(0 6.962568150741333 -0.03771163270978395)"><path d="M-0.46 -0.05 C1.92 0.03, 11.41 0.22, 13.72 0.25 M0.31 -0.55 C2.64 -0.6, 10.82 -0.5, 13.18 -0.55" stroke="#1e1e1e" stroke-width="1" fill="none"></path></g></g><mask></mask><g stroke-linecap="round"><g transform="translate(307.1326965625258 97.54043077702812) rotate(0 -0.10725900545702416 1.1798146915828633)"><path d="M-0.13 0.21 C-0.17 0.63, -0.5 2.17, -0.54 2.49 M0.44 0.01 C0.53 0.33, 0.27 1.53, 0.09 1.94" stroke="#1e1e1e" stroke-width="1" fill="none"></path></g></g><mask></mask><g stroke-linecap="round"><g transform="translate(321.6684722181541 96.89713113331521) rotate(0 0.07150273045282063 1.7518447181684884)"><path d="M-0.32 0.13 C-0.3 0.65, -0.06 2.74, 0.03 3.31 M0.16 -0.1 C0.14 0.44, -0.29 2.99, -0.31 3.66" stroke="#1e1e1e" stroke-width="1" fill="none"></path></g></g><mask></mask><g stroke-linecap="round"><g transform="translate(306.84667254797375 99.39953450065366) rotate(0 7.400645526757124 0.14300709749825824)"><path d="M-0.18 -0.31 C2.4 -0.29, 12.46 0.1, 14.95 0.29 M0.74 0.73 C3.29 0.81, 12.32 1.11, 14.59 0.99" stroke="#1e1e1e" stroke-width="1" fill="none"></path></g></g><mask></mask><g stroke-linecap="round"><g transform="translate(317.6444935951041 100.17163233313912) rotate(0 0 4.956260620972665)"><path d="M0 0 C-0.02 2.61, 0.3 4.99, 0 9.91 M0 0 C-0.02 3.5, 0.14 7.07, 0 9.91" stroke="#1e1e1e" stroke-width="1" fill="none"></path></g></g><mask></mask><g stroke-linecap="round"><g transform="translate(311.21004914262255 100.45417442438219) rotate(0 0 4.956260620972665)"><path d="M0 0 C0.32 2.92, 0.16 6.21, 0 9.91 M0 0 C0.17 3.81, 0.06 7.37, 0 9.91" stroke="#1e1e1e" stroke-width="1" fill="none"></path></g></g><mask></mask><g stroke-linecap="round"><g transform="translate(314.7265468195758 100.31290337876067) rotate(0 0 4.956260620972665)"><path d="M0 0 C0.2 2.58, 0.26 5.71, 0 9.91 M0 0 C0.09 3.23, 0.18 6.45, 0 9.91" stroke="#1e1e1e" stroke-width="1" fill="none"></path></g></g><mask></mask><g stroke-linecap="round"><g transform="translate(307.3205640875923 110.80859603157978) rotate(0 6.881314382176129 -0.03727153471575714)"><path d="M-0.44 0.38 C1.95 0.35, 11.34 0.04, 13.8 0.05 M0.33 0.11 C2.7 -0.13, 11.07 -0.77, 13.39 -0.86" stroke="#1e1e1e" stroke-width="1" fill="none"></path></g></g><mask></mask><g stroke-linecap="round"><g transform="translate(307.2981170936961 110.95063331339139) rotate(0 -0.10600728364730116 1.166046152758652)"><path d="M0.02 0.08 C0.1 0.48, 0.16 2.25, 0.14 2.64 M-0.39 -0.19 C-0.31 0.1, 0.02 1.67, 0.04 2.18" stroke="#1e1e1e" stroke-width="1" fill="none"></path></g></g><mask></mask><g stroke-linecap="round"><g transform="translate(321.66425899846297 110.31484103179497) rotate(0 0.07066828744469689 1.731400539783379)"><path d="M0.35 0.31 C0.39 0.89, 0.25 3, 0.27 3.55 M0.11 0.16 C0.11 0.62, 0 2.5, 0.05 2.97" stroke="#1e1e1e" stroke-width="1" fill="none"></path></g></g><mask></mask><g stroke-linecap="round"><g transform="translate(307.01543100397 112.7880411368221) rotate(0 7.314279357572808 0.14133819238282785)"><path d="M0.19 0.14 C2.62 0.14, 12.79 0.44, 15.12 0.49 M-0.37 -0.27 C1.98 -0.2, 12.34 -0.33, 14.94 -0.37" stroke="#1e1e1e" stroke-width="1" fill="none"></path></g></g><mask></mask><g stroke-linecap="round"><g transform="translate(286.4549402170002 101.93221418469291) rotate(0 0 5.109303535187643)"><path d="M0 0 C-0.39 3.45, -0.41 8.35, 0 10.22 M0 0 C0.2 3.02, 0.2 6.09, 0 10.22" stroke="#1e1e1e" stroke-width="1" fill="none"></path></g></g><mask></mask><g stroke-linecap="round"><g transform="translate(297.7956920642734 102.14411644187506) rotate(0 0 4.956260620972665)"><path d="M0 0 C-0.31 3.94, -0.05 7.19, 0 9.91 M0 0 C0.16 2.39, 0.19 4.76, 0 9.91" stroke="#1e1e1e" stroke-width="1" fill="none"></path></g></g><mask></mask><g stroke-linecap="round"><g transform="translate(284.68717410552466 99.28679520829037) rotate(0 6.962568150741333 -0.03771163270978395)"><path d="M0.51 -0.04 C2.89 -0.03, 11.47 -0.43, 13.78 -0.43 M0.1 -0.53 C2.45 -0.42, 10.91 -0.1, 13.27 0.09" stroke="#1e1e1e" stroke-width="1" fill="none"></path></g></g><mask></mask><g stroke-linecap="round"><g transform="translate(284.66446206010687 99.43050964998493) rotate(0 -0.10725900545702416 1.1798146915828633)"><path d="M-0.09 -0.23 C-0.14 0.17, 0.05 1.94, 0.08 2.39 M0.5 0.42 C0.41 0.89, 0.04 2.61, -0.05 2.85" stroke="#1e1e1e" stroke-width="1" fill="none"></path></g></g><mask></mask><g stroke-linecap="round"><g transform="translate(299.20023771573517 98.78721000627202) rotate(0 0.07150273045282063 1.7518447181684884)"><path d="M0.29 0.03 C0.38 0.67, 0.4 3.02, 0.43 3.63 M0.02 -0.26 C0.09 0.29, 0.23 2.51, 0.3 3.07" stroke="#1e1e1e" stroke-width="1" fill="none"></path></g></g><mask></mask><g stroke-linecap="round"><g transform="translate(284.3784380455548 101.28961337361046) rotate(0 7.400645526757124 0.14300709749825824)"><path d="M0.45 0.2 C2.93 0.29, 12.89 0.6, 15.33 0.61 M0.02 -0.18 C2.43 -0.24, 12.69 -0.36, 15.17 -0.19" stroke="#1e1e1e" stroke-width="1" fill="none"></path></g></g><mask></mask><g stroke-linecap="round"><g transform="translate(295.17625909268514 101.8005326272945) rotate(0 0 4.956260620972665)"><path d="M0 0 C0.21 3.96, 0 7.64, 0 9.91 M0 0 C-0.06 2.11, 0.04 4.16, 0 9.91" stroke="#1e1e1e" stroke-width="1" fill="none"></path></g></g><mask></mask><g stroke-linecap="round"><g transform="translate(288.7418146402036 102.34425329733902) rotate(0 0 4.956260620972665)"><path d="M0 0 C0.01 4, -0.27 7.67, 0 9.91 M0 0 C0.05 3.62, -0.15 7.38, 0 9.91" stroke="#1e1e1e" stroke-width="1" fill="none"></path></g></g><mask></mask><g stroke-linecap="round"><g transform="translate(292.2583123171568 102.20298225171747) rotate(0 0 4.956260620972665)"><path d="M0 0 C-0.29 3.32, 0.23 6.93, 0 9.91 M0 0 C-0.13 3.05, 0.09 6.14, 0 9.91" stroke="#1e1e1e" stroke-width="1" fill="none"></path></g></g><mask></mask><g stroke-linecap="round"><g transform="translate(284.8523295851733 112.69867490453662) rotate(0 6.881314382176129 -0.03727153471575706)"><path d="M-0.31 0.38 C1.94 0.45, 11.26 0.04, 13.64 -0.06 M0.52 0.1 C2.69 0.31, 10.95 0.61, 13.14 0.64" stroke="#1e1e1e" stroke-width="1" fill="none"></path></g></g><mask></mask><g stroke-linecap="round"><g transform="translate(284.8298825912771 112.8407121863482) rotate(0 -0.10600728364730116 1.166046152758652)"><path d="M-0.08 0.01 C-0.06 0.34, -0.02 1.83, -0.09 2.23 M0.52 -0.3 C0.52 0.07, -0.25 2.28, -0.3 2.63" stroke="#1e1e1e" stroke-width="1" fill="none"></path></g></g><mask></mask><g stroke-linecap="round"><g transform="translate(299.196024496044 112.2049199047518) rotate(0 0.07066828744469689 1.7314005397833787)"><path d="M0.12 -0.1 C0.11 0.5, -0.19 2.93, -0.16 3.58 M-0.24 -0.46 C-0.14 0.03, 0.42 2.39, 0.48 3.02" stroke="#1e1e1e" stroke-width="1" fill="none"></path></g></g><mask></mask><g stroke-linecap="round"><g transform="translate(284.547196501551 114.67812000977894) rotate(0 7.314279357572808 0.14133819238282763)"><path d="M-0.46 0.18 C1.99 0.34, 12.35 0.8, 14.88 0.79 M0.3 -0.2 C2.68 -0.17, 12.23 -0.06, 14.58 0.09" stroke="#1e1e1e" stroke-width="1" fill="none"></path></g></g><mask></mask><g stroke-linecap="round"><g transform="translate(309.5948805007164 78.99942475763723) rotate(0 4.668484414235522 8.828307455513446)" fill-rule="evenodd"><path d="M0 0 C0.31 0.25, 1.52 0.87, 1.85 1.48 C2.17 2.09, 2.07 2.8, 1.95 3.66 C1.84 4.51, 1.65 5.62, 1.17 6.6 C0.7 7.59, -0.52 8.35, -0.92 9.58 C-1.32 10.81, -1.5 12.76, -1.24 13.96 C-0.97 15.16, -0.33 16.16, 0.69 16.78 C1.7 17.39, 3.49 17.69, 4.84 17.66 C6.19 17.63, 7.84 17.27, 8.79 16.61 C9.75 15.96, 10.35 14.9, 10.57 13.73 C10.8 12.57, 10.56 10.83, 10.15 9.65 C9.75 8.46, 8.59 7.59, 8.13 6.6 C7.67 5.62, 7.48 4.57, 7.39 3.73 C7.31 2.89, 7.35 2.19, 7.6 1.57 C7.86 0.95, 10.2 0.26, 8.93 0 C7.66 -0.26, 1.49 0, 0 0" stroke="none" stroke-width="0" fill="#ffffff" fill-rule="evenodd"></path><path d="M0 0 C0.31 0.25, 1.52 0.87, 1.85 1.48 C2.17 2.09, 2.07 2.8, 1.95 3.66 C1.84 4.51, 1.65 5.62, 1.17 6.6 C0.7 7.59, -0.52 8.35, -0.92 9.58 C-1.32 10.81, -1.5 12.76, -1.24 13.96 C-0.97 15.16, -0.33 16.16, 0.69 16.78 C1.7 17.39, 3.49 17.69, 4.84 17.66 C6.19 17.63, 7.84 17.27, 8.79 16.61 C9.75 15.96, 10.35 14.9, 10.57 13.73 C10.8 12.57, 10.56 10.83, 10.15 9.65 C9.75 8.46, 8.59 7.59, 8.13 6.6 C7.67 5.62, 7.48 4.57, 7.39 3.73 C7.31 2.89, 7.35 2.19, 7.6 1.57 C7.86 0.95, 10.2 0.26, 8.93 0 C7.66 -0.26, 1.49 0, 0 0 M0 0 C0.31 0.25, 1.52 0.87, 1.85 1.48 C2.17 2.09, 2.07 2.8, 1.95 3.66 C1.84 4.51, 1.65 5.62, 1.17 6.6 C0.7 7.59, -0.52 8.35, -0.92 9.58 C-1.32 10.81, -1.5 12.76, -1.24 13.96 C-0.97 15.16, -0.33 16.16, 0.69 16.78 C1.7 17.39, 3.49 17.69, 4.84 17.66 C6.19 17.63, 7.84 17.27, 8.79 16.61 C9.75 15.96, 10.35 14.9, 10.57 13.73 C10.8 12.57, 10.56 10.83, 10.15 9.65 C9.75 8.46, 8.59 7.59, 8.13 6.6 C7.67 5.62, 7.48 4.57, 7.39 3.73 C7.31 2.89, 7.35 2.19, 7.6 1.57 C7.86 0.95, 10.2 0.26, 8.93 0 C7.66 -0.26, 1.49 0, 0 0" stroke="#1e1e1e" stroke-width="1" fill="none"></path></g></g><mask></mask><g stroke-linecap="round"><g transform="translate(333.3434623803548 86.06778203414403) rotate(0 4.12554584497218 6.2869099045951735)" fill-rule="evenodd"><path d="M0 0 C-0.16 0.06, -0.6 0.1, -0.96 0.33 C-1.31 0.56, -1.77 0.92, -2.14 1.36 C-2.51 1.8, -2.89 2.25, -3.17 2.97 C-3.45 3.7, -3.84 4.72, -3.83 5.72 C-3.82 6.72, -3.62 7.97, -3.12 8.96 C-2.62 9.95, -1.98 11.04, -0.81 11.65 C0.37 12.27, 2.33 12.64, 3.92 12.65 C5.52 12.66, 7.53 12.34, 8.77 11.72 C10 11.1, 10.79 9.92, 11.34 8.92 C11.89 7.92, 12.03 6.63, 12.08 5.71 C12.13 4.79, 11.87 4.1, 11.64 3.42 C11.41 2.74, 11.04 2.11, 10.68 1.64 C10.33 1.17, 9.97 0.85, 9.49 0.59 C9.01 0.33, 8.46 0.19, 7.82 0.08 C7.18 -0.03, 6.95 -0.07, 5.65 -0.08 C4.35 -0.09, 0.94 -0.01, 0 0" stroke="none" stroke-width="0" fill="#ffffff" fill-rule="evenodd"></path><path d="M0 0 C-0.16 0.06, -0.6 0.1, -0.96 0.33 C-1.31 0.56, -1.77 0.92, -2.14 1.36 C-2.51 1.8, -2.89 2.25, -3.17 2.97 C-3.45 3.7, -3.84 4.72, -3.83 5.72 C-3.82 6.72, -3.62 7.97, -3.12 8.96 C-2.62 9.95, -1.98 11.04, -0.81 11.65 C0.37 12.27, 2.33 12.64, 3.92 12.65 C5.52 12.66, 7.53 12.34, 8.77 11.72 C10 11.1, 10.79 9.92, 11.34 8.92 C11.89 7.92, 12.03 6.63, 12.08 5.71 C12.13 4.79, 11.87 4.1, 11.64 3.42 C11.41 2.74, 11.04 2.11, 10.68 1.64 C10.33 1.17, 9.97 0.85, 9.49 0.59 C9.01 0.33, 8.46 0.19, 7.82 0.08 C7.18 -0.03, 6.95 -0.07, 5.65 -0.08 C4.35 -0.09, 0.94 -0.01, 0 0 M0 0 C-0.16 0.06, -0.6 0.1, -0.96 0.33 C-1.31 0.56, -1.77 0.92, -2.14 1.36 C-2.51 1.8, -2.89 2.25, -3.17 2.97 C-3.45 3.7, -3.84 4.72, -3.83 5.72 C-3.82 6.72, -3.62 7.97, -3.12 8.96 C-2.62 9.95, -1.98 11.04, -0.81 11.65 C0.37 12.27, 2.33 12.64, 3.92 12.65 C5.52 12.66, 7.53 12.34, 8.77 11.72 C10 11.1, 10.79 9.92, 11.34 8.92 C11.89 7.92, 12.03 6.63, 12.08 5.71 C12.13 4.79, 11.87 4.1, 11.64 3.42 C11.41 2.74, 11.04 2.11, 10.68 1.64 C10.33 1.17, 9.97 0.85, 9.49 0.59 C9.01 0.33, 8.46 0.19, 7.82 0.08 C7.18 -0.03, 6.95 -0.07, 5.65 -0.08 C4.35 -0.09, 0.94 -0.01, 0 0" stroke="#1e1e1e" stroke-width="1" fill="none"></path></g></g><mask></mask><g stroke-linecap="round"><g transform="translate(330.48410771600015 89.21792323648035) rotate(0 6.878970419911269 0.038217668607941846)"><path d="M0 0 C1.15 0.04, 4.62 0.25, 6.92 0.23 C9.21 0.2, 12.62 -0.09, 13.76 -0.15 M0 0 C1.15 0.04, 4.62 0.25, 6.92 0.23 C9.21 0.2, 12.62 -0.09, 13.76 -0.15" stroke="#1e1e1e" stroke-width="1" fill="none"></path></g></g><mask></mask><g stroke-linecap="round"><g transform="translate(337.2372745782869 93.95182491401933) rotate(0 -0.7514516655559902 -0.10753211649342465)" fill-rule="evenodd"><path d="M0 0 C-0.25 -0.2, -1.32 -1.19, -1.5 -1.19 C-1.69 -1.19, -1.13 -0.35, -1.12 0.01 C-1.11 0.37, -1.64 0.98, -1.45 0.97 C-1.26 0.97, -0.24 0.16, 0 0" stroke="none" stroke-width="0" fill="#ffffff" fill-rule="evenodd"></path><path d="M0 0 C-0.25 -0.2, -1.32 -1.19, -1.5 -1.19 C-1.69 -1.19, -1.13 -0.35, -1.12 0.01 C-1.11 0.37, -1.64 0.98, -1.45 0.97 C-1.26 0.97, -0.24 0.16, 0 0 M0 0 C-0.25 -0.2, -1.32 -1.19, -1.5 -1.19 C-1.69 -1.19, -1.13 -0.35, -1.12 0.01 C-1.11 0.37, -1.64 0.98, -1.45 0.97 C-1.26 0.97, -0.24 0.16, 0 0" stroke="#1e1e1e" stroke-width="0.5" fill="none"></path></g></g><mask></mask><g stroke-linecap="round"><g transform="translate(337.2058692029955 93.91008549574101) rotate(0 2.192331002334228 -0.2227104044792716)" fill-rule="evenodd"><path d="M0 0 C0.25 -0.24, 0.95 -1.23, 1.51 -1.44 C2.08 -1.66, 2.93 -1.53, 3.4 -1.3 C3.88 -1.07, 4.49 -0.46, 4.38 -0.08 C4.28 0.3, 3.39 0.87, 2.77 1 C2.16 1.12, 1.14 0.84, 0.68 0.67 C0.22 0.5, 0.11 0.11, 0 0" stroke="none" stroke-width="0" fill="#ffffff" fill-rule="evenodd"></path><path d="M0 0 C0.25 -0.24, 0.95 -1.23, 1.51 -1.44 C2.08 -1.66, 2.93 -1.53, 3.4 -1.3 C3.88 -1.07, 4.49 -0.46, 4.38 -0.08 C4.28 0.3, 3.39 0.87, 2.77 1 C2.16 1.12, 1.14 0.84, 0.68 0.67 C0.22 0.5, 0.11 0.11, 0 0 M0 0 C0.25 -0.24, 0.95 -1.23, 1.51 -1.44 C2.08 -1.66, 2.93 -1.53, 3.4 -1.3 C3.88 -1.07, 4.49 -0.46, 4.38 -0.08 C4.28 0.3, 3.39 0.87, 2.77 1 C2.16 1.12, 1.14 0.84, 0.68 0.67 C0.22 0.5, 0.11 0.11, 0 0" stroke="#1e1e1e" stroke-width="0.5" fill="none"></path></g></g><mask></mask><g stroke-linecap="round"><g transform="translate(340.4253684054544 92.57894926772558) rotate(0 -0.2512607407865062 1.1516158021759288)" fill-rule="evenodd"><path d="M0 0 C-0.08 0.16, -0.48 0.58, -0.5 0.96 C-0.53 1.35, -0.21 2.08, -0.15 2.3" stroke="none" stroke-width="0" fill="#ffffff" fill-rule="evenodd"></path><path d="M0 0 C-0.08 0.16, -0.48 0.58, -0.5 0.96 C-0.53 1.35, -0.21 2.08, -0.15 2.3 M0 0 C-0.08 0.16, -0.48 0.58, -0.5 0.96 C-0.53 1.35, -0.21 2.08, -0.15 2.3" stroke="#1e1e1e" stroke-width="0.5" fill="none"></path></g></g><mask></mask><g stroke-linecap="round"><g transform="translate(339.3549235448345 94.60080203133171) rotate(0 -0.05234490936561542 0.6428695960823916)" fill-rule="evenodd"><path d="M0 0 C-0.08 0.1, -0.51 0.4, -0.46 0.61 C-0.42 0.83, 0.14 1.38, 0.27 1.29 C0.41 1.19, 0.34 0.27, 0.36 0.06" stroke="none" stroke-width="0" fill="#ffffff" fill-rule="evenodd"></path><path d="M0 0 C-0.08 0.1, -0.51 0.4, -0.46 0.61 C-0.42 0.83, 0.14 1.38, 0.27 1.29 C0.41 1.19, 0.34 0.27, 0.36 0.06 M0 0 C-0.08 0.1, -0.51 0.4, -0.46 0.61 C-0.42 0.83, 0.14 1.38, 0.27 1.29 C0.41 1.19, 0.34 0.27, 0.36 0.06" stroke="#1e1e1e" stroke-width="0.5" fill="none"></path></g></g><mask></mask><g stroke-linecap="round"><g transform="translate(339.9509559833859 94.98890028686893) rotate(0 0.488470330186658 0.32069532844278914)" fill-rule="evenodd"><path d="M0 0 C0.09 0.12, 0.38 0.68, 0.54 0.73 C0.7 0.79, 0.97 0.47, 0.98 0.33 C0.98 0.2, 0.64 -0.02, 0.58 -0.09" stroke="none" stroke-width="0" fill="#ffffff" fill-rule="evenodd"></path><path d="M0 0 C0.09 0.12, 0.38 0.68, 0.54 0.73 C0.7 0.79, 0.97 0.47, 0.98 0.33 C0.98 0.2, 0.64 -0.02, 0.58 -0.09 M0 0 C0.09 0.12, 0.38 0.68, 0.54 0.73 C0.7 0.79, 0.97 0.47, 0.98 0.33 C0.98 0.2, 0.64 -0.02, 0.58 -0.09" stroke="#1e1e1e" stroke-width="0.5" fill="none"></path></g></g><mask></mask><g stroke-linecap="round" transform="translate(340.4425518833981 93.17250827244746) rotate(0 0.1929087646430645 0.19515175131196294)"><path d="M0.39 0.2 C0.39 0.21, 0.38 0.22, 0.38 0.23 C0.38 0.24, 0.38 0.25, 0.37 0.26 C0.37 0.27, 0.37 0.28, 0.36 0.29 C0.35 0.3, 0.35 0.31, 0.34 0.32 C0.33 0.33, 0.33 0.34, 0.32 0.34 C0.31 0.35, 0.3 0.36, 0.29 0.36 C0.28 0.37, 0.27 0.37, 0.26 0.38 C0.25 0.38, 0.24 0.39, 0.23 0.39 C0.22 0.39, 0.2 0.39, 0.19 0.39 C0.18 0.39, 0.17 0.39, 0.16 0.39 C0.15 0.39, 0.14 0.38, 0.13 0.38 C0.12 0.37, 0.11 0.37, 0.1 0.36 C0.09 0.36, 0.08 0.35, 0.07 0.34 C0.06 0.34, 0.05 0.33, 0.05 0.32 C0.04 0.31, 0.03 0.3, 0.03 0.29 C0.02 0.28, 0.02 0.27, 0.01 0.26 C0.01 0.25, 0 0.24, 0 0.23 C0 0.22, 0 0.21, 0 0.2 C0 0.18, 0 0.17, 0 0.16 C0 0.15, 0.01 0.14, 0.01 0.13 C0.02 0.12, 0.02 0.11, 0.03 0.1 C0.03 0.09, 0.04 0.08, 0.05 0.07 C0.05 0.06, 0.06 0.05, 0.07 0.05 C0.08 0.04, 0.09 0.03, 0.1 0.03 C0.11 0.02, 0.12 0.02, 0.13 0.01 C0.14 0.01, 0.15 0, 0.16 0 C0.17 0, 0.18 0, 0.19 0 C0.2 0, 0.22 0, 0.23 0 C0.24 0, 0.25 0.01, 0.26 0.01 C0.27 0.02, 0.28 0.02, 0.29 0.03 C0.3 0.03, 0.31 0.04, 0.32 0.05 C0.33 0.05, 0.33 0.06, 0.34 0.07 C0.35 0.08, 0.35 0.09, 0.36 0.1 C0.37 0.11, 0.37 0.12, 0.37 0.13 C0.38 0.14, 0.38 0.15, 0.38 0.16 C0.38 0.17, 0.39 0.19, 0.39 0.2 C0.39 0.2, 0.39 0.19, 0.39 0.2" stroke="none" stroke-width="0" fill="#1e1e1e"></path><path d="M0.39 0.2 C0.39 0.21, 0.38 0.22, 0.38 0.23 C0.38 0.24, 0.38 0.25, 0.37 0.26 C0.37 0.27, 0.37 0.28, 0.36 0.29 C0.35 0.3, 0.35 0.31, 0.34 0.32 C0.33 0.33, 0.33 0.34, 0.32 0.34 C0.31 0.35, 0.3 0.36, 0.29 0.36 C0.28 0.37, 0.27 0.37, 0.26 0.38 C0.25 0.38, 0.24 0.39, 0.23 0.39 C0.22 0.39, 0.2 0.39, 0.19 0.39 C0.18 0.39, 0.17 0.39, 0.16 0.39 C0.15 0.39, 0.14 0.38, 0.13 0.38 C0.12 0.37, 0.11 0.37, 0.1 0.36 C0.09 0.36, 0.08 0.35, 0.07 0.34 C0.06 0.34, 0.05 0.33, 0.05 0.32 C0.04 0.31, 0.03 0.3, 0.03 0.29 C0.02 0.28, 0.02 0.27, 0.01 0.26 C0.01 0.25, 0 0.24, 0 0.23 C0 0.22, 0 0.21, 0 0.2 C0 0.18, 0 0.17, 0 0.16 C0 0.15, 0.01 0.14, 0.01 0.13 C0.02 0.12, 0.02 0.11, 0.03 0.1 C0.03 0.09, 0.04 0.08, 0.05 0.07 C0.05 0.06, 0.06 0.05, 0.07 0.05 C0.08 0.04, 0.09 0.03, 0.1 0.03 C0.11 0.02, 0.12 0.02, 0.13 0.01 C0.14 0.01, 0.15 0, 0.16 0 C0.17 0, 0.18 0, 0.19 0 C0.2 0, 0.22 0, 0.23 0 C0.24 0, 0.25 0.01, 0.26 0.01 C0.27 0.02, 0.28 0.02, 0.29 0.03 C0.3 0.03, 0.31 0.04, 0.32 0.05 C0.33 0.05, 0.33 0.06, 0.34 0.07 C0.35 0.08, 0.35 0.09, 0.36 0.1 C0.37 0.11, 0.37 0.12, 0.37 0.13 C0.38 0.14, 0.38 0.15, 0.38 0.16 C0.38 0.17, 0.39 0.19, 0.39 0.2 C0.39 0.2, 0.39 0.19, 0.39 0.2" stroke="#1e1e1e" stroke-width="0.5" fill="none"></path></g><g stroke-linecap="round"><g transform="translate(339.608803902064 92.36548675278407) rotate(0 -0.4050209678957515 -0.14463114790799203)" fill-rule="evenodd"><path d="M0 0 C-0.05 -0.05, -0.15 -0.25, -0.28 -0.3 C-0.42 -0.36, -0.76 -0.36, -0.81 -0.31 C-0.86 -0.25, -0.64 -0.04, -0.61 0.02" stroke="none" stroke-width="0" fill="#ffffff" fill-rule="evenodd"></path><path d="M0 0 C-0.05 -0.05, -0.15 -0.25, -0.28 -0.3 C-0.42 -0.36, -0.76 -0.36, -0.81 -0.31 C-0.86 -0.25, -0.64 -0.04, -0.61 0.02 M0 0 C-0.05 -0.05, -0.15 -0.25, -0.28 -0.3 C-0.42 -0.36, -0.76 -0.36, -0.81 -0.31 C-0.86 -0.25, -0.64 -0.04, -0.61 0.02" stroke="#1e1e1e" stroke-width="0.5" fill="none"></path></g></g><mask></mask><g stroke-linecap="round"><g transform="translate(288.125838561728 86.38185357321751) rotate(0 4.12554584497218 5.934998870514171)" fill-rule="evenodd"><path d="M0 0 C-0.16 0.06, -0.6 0.1, -0.96 0.33 C-1.31 0.56, -1.77 0.92, -2.14 1.36 C-2.51 1.8, -2.89 2.25, -3.17 2.97 C-3.45 3.7, -3.84 4.72, -3.83 5.72 C-3.82 6.72, -3.66 7.97, -3.12 8.96 C-2.59 9.95, -1.84 11.17, -0.63 11.65 C0.59 12.14, 2.6 11.86, 4.16 11.87 C5.73 11.88, 7.57 12.21, 8.77 11.72 C9.96 11.23, 10.79 9.92, 11.34 8.92 C11.89 7.92, 12.03 6.63, 12.08 5.71 C12.13 4.79, 11.87 4.1, 11.64 3.42 C11.41 2.74, 11.04 2.11, 10.68 1.64 C10.33 1.17, 9.97 0.85, 9.49 0.59 C9.01 0.33, 8.72 -0.04, 7.82 0.08 C6.91 0.2, 5.39 1.32, 4.09 1.31 C2.78 1.29, 0.68 0.22, 0 0" stroke="none" stroke-width="0" fill="#ffffff" fill-rule="evenodd"></path><path d="M0 0 C-0.16 0.06, -0.6 0.1, -0.96 0.33 C-1.31 0.56, -1.77 0.92, -2.14 1.36 C-2.51 1.8, -2.89 2.25, -3.17 2.97 C-3.45 3.7, -3.84 4.72, -3.83 5.72 C-3.82 6.72, -3.66 7.97, -3.12 8.96 C-2.59 9.95, -1.84 11.17, -0.63 11.65 C0.59 12.14, 2.6 11.86, 4.16 11.87 C5.73 11.88, 7.57 12.21, 8.77 11.72 C9.96 11.23, 10.79 9.92, 11.34 8.92 C11.89 7.92, 12.03 6.63, 12.08 5.71 C12.13 4.79, 11.87 4.1, 11.64 3.42 C11.41 2.74, 11.04 2.11, 10.68 1.64 C10.33 1.17, 9.97 0.85, 9.49 0.59 C9.01 0.33, 8.72 -0.04, 7.82 0.08 C6.91 0.2, 5.39 1.32, 4.09 1.31 C2.78 1.29, 0.68 0.22, 0 0 M0 0 C-0.16 0.06, -0.6 0.1, -0.96 0.33 C-1.31 0.56, -1.77 0.92, -2.14 1.36 C-2.51 1.8, -2.89 2.25, -3.17 2.97 C-3.45 3.7, -3.84 4.72, -3.83 5.72 C-3.82 6.72, -3.66 7.97, -3.12 8.96 C-2.59 9.95, -1.84 11.17, -0.63 11.65 C0.59 12.14, 2.6 11.86, 4.16 11.87 C5.73 11.88, 7.57 12.21, 8.77 11.72 C9.96 11.23, 10.79 9.92, 11.34 8.92 C11.89 7.92, 12.03 6.63, 12.08 5.71 C12.13 4.79, 11.87 4.1, 11.64 3.42 C11.41 2.74, 11.04 2.11, 10.68 1.64 C10.33 1.17, 9.97 0.85, 9.49 0.59 C9.01 0.33, 8.72 -0.04, 7.82 0.08 C6.91 0.2, 5.39 1.32, 4.09 1.31 C2.78 1.29, 0.68 0.22, 0 0" stroke="#1e1e1e" stroke-width="1" fill="none"></path></g></g><mask></mask><g stroke-linecap="round"><g transform="translate(289.73934806272945 86.98118079234273) rotate(0 -1.5169100411815393 5.511833106189602)"><path d="M0 0 C-0.22 0.18, -0.83 0.51, -1.29 1.07 C-1.76 1.64, -2.5 2.72, -2.79 3.39 C-3.08 4.06, -3.03 4.47, -3.03 5.08 C-3.04 5.69, -3 6.37, -2.81 7.05 C-2.63 7.73, -2.34 8.5, -1.9 9.17 C-1.46 9.83, -0.47 10.71, -0.19 11.02 M0 0 C-0.22 0.18, -0.83 0.51, -1.29 1.07 C-1.76 1.64, -2.5 2.72, -2.79 3.39 C-3.08 4.06, -3.03 4.47, -3.03 5.08 C-3.04 5.69, -3 6.37, -2.81 7.05 C-2.63 7.73, -2.34 8.5, -1.9 9.17 C-1.46 9.83, -0.47 10.71, -0.19 11.02" stroke="#1e1e1e" stroke-width="0.5" fill="none"></path></g></g><mask></mask><g stroke-linecap="round"><g transform="translate(295.1260822376671 86.97947611719248) rotate(0 1.143523221459617 5.446762084688192)"><path d="M0 0 C0.32 0.42, 1.54 1.33, 1.93 2.53 C2.31 3.72, 2.58 5.77, 2.29 7.16 C2 8.56, 0.53 10.27, 0.18 10.89 M0 0 C0.32 0.42, 1.54 1.33, 1.93 2.53 C2.31 3.72, 2.58 5.77, 2.29 7.16 C2 8.56, 0.53 10.27, 0.18 10.89" stroke="#1e1e1e" stroke-width="0.5" fill="none"></path></g></g><mask></mask><g stroke-linecap="round"><g transform="translate(291.1622206208971 87.56021886177848) rotate(0 -0.8861601046145395 5.227753060409338)"><path d="M0 0 C-0.25 0.39, -1.18 1.64, -1.48 2.35 C-1.78 3.07, -1.79 3.44, -1.81 4.28 C-1.83 5.11, -1.93 6.32, -1.62 7.35 C-1.31 8.38, -0.24 9.94, 0.04 10.46 M0 0 C-0.25 0.39, -1.18 1.64, -1.48 2.35 C-1.78 3.07, -1.79 3.44, -1.81 4.28 C-1.83 5.11, -1.93 6.32, -1.62 7.35 C-1.31 8.38, -0.24 9.94, 0.04 10.46" stroke="#1e1e1e" stroke-width="0.5" fill="none"></path></g></g><mask></mask><g stroke-linecap="round"><g transform="translate(293.63896204232145 87.8521604688689) rotate(0 0.7222167823194567 4.90509398782978)"><path d="M0 0 C0.24 0.63, 1.24 2.56, 1.44 3.79 C1.65 5.02, 1.43 6.39, 1.2 7.4 C0.97 8.4, 0.25 9.41, 0.06 9.81 M0 0 C0.24 0.63, 1.24 2.56, 1.44 3.79 C1.65 5.02, 1.43 6.39, 1.2 7.4 C0.97 8.4, 0.25 9.41, 0.06 9.81" stroke="#1e1e1e" stroke-width="0.5" fill="none"></path></g></g><mask></mask><g stroke-linecap="round"><g transform="translate(292.56897520843904 87.75035604100623) rotate(0 -0.20805553695053902 5.0123027938725215)"><path d="M0 0 C0 0.35, 0.09 1.24, 0 2.08 C-0.09 2.92, -0.55 4.19, -0.53 5.03 C-0.51 5.87, 0.02 6.28, 0.11 7.11 C0.21 7.94, 0.05 9.54, 0.04 10.02 M0 0 C0 0.35, 0.09 1.24, 0 2.08 C-0.09 2.92, -0.55 4.19, -0.53 5.03 C-0.51 5.87, 0.02 6.28, 0.11 7.11 C0.21 7.94, 0.05 9.54, 0.04 10.02" stroke="#1e1e1e" stroke-width="0.5" fill="none"></path></g></g><mask></mask><g stroke-linecap="round"><g transform="translate(291.5631499930626 87.49614649402366) rotate(0 0.7789720259597317 -1.116130836726466)"><path d="M0 0 C0.06 -0.39, 0.11 -1.93, 0.37 -2.32 C0.63 -2.71, 1.45 -2.72, 1.56 -2.31 C1.66 -1.91, 1.09 -0.31, 1 0.09 M0 0 C0.06 -0.39, 0.11 -1.93, 0.37 -2.32 C0.63 -2.71, 1.45 -2.72, 1.56 -2.31 C1.66 -1.91, 1.09 -0.31, 1 0.09" stroke="#1e1e1e" stroke-width="0.5" fill="none"></path></g></g><mask></mask></svg>