<svg version="1.1" xmlns="http://www.w3.org/2000/svg" viewBox="0 0 438.6667785644531 262.00001525878906" width="438.6667785644531" height="262.00001525878906" class="excalidraw-svg"><!-- svg-source:excalidraw --><metadata></metadata><defs><style class="style-fonts">
      </style></defs><rect x="0" y="0" width="438.6667785644531" height="262.00001525878906" fill="#ffffff"></rect><g stroke-linecap="round" transform="translate(10 10) rotate(0 121.00000762939453 121.00000762939453)"><path d="M242 121 C242 124.52, 241.85 128.04, 241.54 131.55 C241.23 135.05, 240.77 138.55, 240.16 142.01 C239.55 145.47, 238.79 148.92, 237.88 152.32 C236.97 155.71, 235.91 159.08, 234.7 162.38 C233.5 165.69, 232.15 168.95, 230.66 172.14 C229.18 175.32, 227.55 178.46, 225.79 181.5 C224.03 184.54, 222.13 187.52, 220.12 190.4 C218.1 193.28, 215.95 196.08, 213.69 198.78 C211.43 201.47, 209.05 204.07, 206.56 206.56 C204.07 209.05, 201.47 211.43, 198.78 213.69 C196.08 215.95, 193.28 218.1, 190.4 220.12 C187.52 222.13, 184.54 224.03, 181.5 225.79 C178.46 227.55, 175.32 229.18, 172.14 230.66 C168.95 232.15, 165.69 233.5, 162.38 234.7 C159.08 235.91, 155.71 236.97, 152.32 237.88 C148.92 238.79, 145.47 239.55, 142.01 240.16 C138.55 240.77, 135.05 241.23, 131.55 241.54 C128.04 241.85, 124.52 242, 121 242 C117.48 242, 113.96 241.85, 110.45 241.54 C106.95 241.23, 103.45 240.77, 99.99 240.16 C96.53 239.55, 93.08 238.79, 89.68 237.88 C86.29 236.97, 82.92 235.91, 79.62 234.7 C76.31 233.5, 73.05 232.15, 69.86 230.66 C66.68 229.18, 63.54 227.55, 60.5 225.79 C57.46 224.03, 54.48 222.13, 51.6 220.12 C48.72 218.1, 45.92 215.95, 43.22 213.69 C40.53 211.43, 37.93 209.05, 35.44 206.56 C32.95 204.07, 30.57 201.47, 28.31 198.78 C26.05 196.08, 23.9 193.28, 21.88 190.4 C19.87 187.52, 17.97 184.54, 16.21 181.5 C14.45 178.46, 12.82 175.32, 11.34 172.14 C9.85 168.95, 8.5 165.69, 7.3 162.38 C6.09 159.08, 5.03 155.71, 4.12 152.32 C3.21 148.92, 2.45 145.47, 1.84 142.01 C1.23 138.55, 0.77 135.05, 0.46 131.55 C0.15 128.04, 0 124.52, 0 121 C0 117.48, 0.15 113.96, 0.46 110.45 C0.77 106.95, 1.23 103.45, 1.84 99.99 C2.45 96.53, 3.21 93.08, 4.12 89.68 C5.03 86.29, 6.09 82.92, 7.3 79.62 C8.5 76.31, 9.85 73.05, 11.34 69.86 C12.82 66.68, 14.45 63.54, 16.21 60.5 C17.97 57.46, 19.87 54.48, 21.88 51.6 C23.9 48.72, 26.05 45.92, 28.31 43.22 C30.57 40.53, 32.95 37.93, 35.44 35.44 C37.93 32.95, 40.53 30.57, 43.22 28.31 C45.92 26.05, 48.72 23.9, 51.6 21.88 C54.48 19.87, 57.46 17.97, 60.5 16.21 C63.54 14.45, 66.68 12.82, 69.86 11.34 C73.05 9.85, 76.31 8.5, 79.62 7.3 C82.92 6.09, 86.29 5.03, 89.68 4.12 C93.08 3.21, 96.53 2.45, 99.99 1.84 C103.45 1.23, 106.95 0.77, 110.45 0.46 C113.96 0.15, 117.48 0, 121 0 C124.52 0, 128.04 0.15, 131.55 0.46 C135.05 0.77, 138.55 1.23, 142.01 1.84 C145.47 2.45, 148.92 3.21, 152.32 4.12 C155.71 5.03, 159.08 6.09, 162.38 7.3 C165.69 8.5, 168.95 9.85, 172.14 11.34 C175.32 12.82, 178.46 14.45, 181.5 16.21 C184.54 17.97, 187.52 19.87, 190.4 21.88 C193.28 23.9, 196.08 26.05, 198.78 28.31 C201.47 30.57, 204.07 32.95, 206.56 35.44 C209.05 37.93, 211.43 40.53, 213.69 43.22 C215.95 45.92, 218.1 48.72, 220.12 51.6 C222.13 54.48, 224.03 57.46, 225.79 60.5 C227.55 63.54, 229.18 66.68, 230.66 69.86 C232.15 73.05, 233.5 76.31, 234.7 79.62 C235.91 82.92, 236.97 86.29, 237.88 89.68 C238.79 93.08, 239.55 96.53, 240.16 99.99 C240.77 103.45, 241.23 106.95, 241.54 110.45 C241.85 113.96, 241.92 119.24, 242 121 C242.08 122.76, 242.08 119.24, 242 121" stroke="#1e1e1e" stroke-width="2" fill="none"></path></g><g stroke-linecap="round" transform="translate(288.66668701171875 71.33332824707031) rotate(0 70.00004577636719 70.00004577636719)"><path d="M140 70 C140 72.61, 139.85 75.24, 139.56 77.84 C139.27 80.43, 138.83 83.03, 138.25 85.58 C137.66 88.12, 136.93 90.65, 136.07 93.12 C135.21 95.59, 134.2 98.02, 133.07 100.37 C131.93 102.73, 130.66 105.03, 129.27 107.24 C127.88 109.45, 126.36 111.6, 124.73 113.64 C123.1 115.69, 121.34 117.65, 119.5 119.5 C117.65 121.34, 115.69 123.1, 113.64 124.73 C111.6 126.36, 109.45 127.88, 107.24 129.27 C105.03 130.66, 102.73 131.93, 100.37 133.07 C98.02 134.2, 95.59 135.21, 93.12 136.07 C90.65 136.93, 88.12 137.66, 85.58 138.25 C83.03 138.83, 80.43 139.27, 77.84 139.56 C75.24 139.85, 72.61 140, 70 140 C67.39 140, 64.76 139.85, 62.16 139.56 C59.57 139.27, 56.97 138.83, 54.42 138.25 C51.88 137.66, 49.35 136.93, 46.88 136.07 C44.41 135.21, 41.98 134.2, 39.63 133.07 C37.27 131.93, 34.97 130.66, 32.76 129.27 C30.55 127.88, 28.4 126.36, 26.36 124.73 C24.31 123.1, 22.35 121.34, 20.5 119.5 C18.66 117.65, 16.9 115.69, 15.27 113.64 C13.64 111.6, 12.12 109.45, 10.73 107.24 C9.34 105.03, 8.07 102.73, 6.93 100.37 C5.8 98.02, 4.79 95.59, 3.93 93.12 C3.07 90.65, 2.34 88.12, 1.76 85.58 C1.17 83.03, 0.73 80.43, 0.44 77.84 C0.15 75.24, 0 72.61, 0 70 C0 67.39, 0.15 64.76, 0.44 62.16 C0.73 59.57, 1.17 56.97, 1.76 54.42 C2.34 51.88, 3.07 49.35, 3.93 46.88 C4.79 44.41, 5.8 41.98, 6.93 39.63 C8.07 37.27, 9.34 34.97, 10.73 32.76 C12.12 30.55, 13.64 28.4, 15.27 26.36 C16.9 24.31, 18.66 22.35, 20.5 20.5 C22.35 18.66, 24.31 16.9, 26.36 15.27 C28.4 13.64, 30.55 12.12, 32.76 10.73 C34.97 9.34, 37.27 8.07, 39.63 6.93 C41.98 5.8, 44.41 4.79, 46.88 3.93 C49.35 3.07, 51.88 2.34, 54.42 1.76 C56.97 1.17, 59.57 0.73, 62.16 0.44 C64.76 0.15, 67.39 0, 70 0 C72.61 0, 75.24 0.15, 77.84 0.44 C80.43 0.73, 83.03 1.17, 85.58 1.76 C88.12 2.34, 90.65 3.07, 93.12 3.93 C95.59 4.79, 98.02 5.8, 100.37 6.93 C102.73 8.07, 105.03 9.34, 107.24 10.73 C109.45 12.12, 111.6 13.64, 113.64 15.27 C115.69 16.9, 117.65 18.66, 119.5 20.5 C121.34 22.35, 123.1 24.31, 124.73 26.36 C126.36 28.4, 127.88 30.55, 129.27 32.76 C130.66 34.97, 131.93 37.27, 133.07 39.63 C134.2 41.98, 135.21 44.41, 136.07 46.88 C136.93 49.35, 137.66 51.88, 138.25 54.42 C138.83 56.97, 139.27 59.57, 139.56 62.16 C139.85 64.76, 139.93 68.69, 140 70 C140.07 71.31, 140.07 68.69, 140 70" stroke="#1e1e1e" stroke-width="2" fill="none"></path></g><g stroke-linecap="round" transform="translate(16.99999237060547 16.333351135253906) rotate(0 114.66667938232422 114.66667938232422)"><path d="M85.18 4.53 C96.82 -0.42, 112.44 -1.15, 125.57 0.08 C138.7 1.31, 152.09 6.25, 163.96 11.9 C175.84 17.54, 187.75 24.83, 196.81 33.93 C205.88 43.04, 213.09 54.7, 218.37 66.51 C223.65 78.32, 227.34 91.81, 228.5 104.8 C229.66 117.79, 228.63 131.87, 225.36 144.47 C222.09 157.07, 216.59 169.74, 208.87 180.39 C201.15 191.04, 190.02 200.8, 179.05 208.38 C168.07 215.95, 155.69 222.35, 143.03 225.86 C130.37 229.38, 116.03 230.88, 103.08 229.46 C90.14 228.05, 76.92 223.19, 65.35 217.38 C53.78 211.56, 42.84 203.67, 33.66 194.58 C24.49 185.49, 15.93 174.68, 10.31 162.83 C4.68 150.98, 0.89 136.75, -0.1 123.48 C-1.08 110.2, 0.84 95.68, 4.41 83.18 C7.99 70.67, 13.89 59.1, 21.35 48.44 C28.8 37.78, 37.1 26.99, 49.15 19.23 C61.21 11.47, 85.05 4.42, 93.7 1.88 C102.35 -0.66, 100.84 2.04, 101.05 3.99 M125.6 -0.66 C137.77 -1.11, 152.57 7.22, 164.28 13.11 C176 18.99, 186.56 25.4, 195.89 34.64 C205.21 43.88, 214.58 56.36, 220.23 68.55 C225.88 80.74, 228.96 94.77, 229.8 107.77 C230.65 120.77, 228.86 134.01, 225.32 146.56 C221.78 159.11, 216.18 172.76, 208.57 183.08 C200.95 193.39, 190.84 201.07, 179.63 208.46 C168.42 215.84, 154.25 223.96, 141.31 227.38 C128.38 230.8, 114.75 230.36, 102.01 228.97 C89.26 227.58, 76.29 224.92, 64.86 219.04 C53.44 213.15, 42.61 203.16, 33.46 193.65 C24.31 184.14, 15.39 173.85, 9.98 161.99 C4.57 150.13, 2.01 135.76, 0.98 122.51 C-0.05 109.27, 0.35 95.25, 3.79 82.5 C7.23 69.74, 13.86 56.7, 21.63 45.99 C29.39 35.28, 39.3 25.45, 50.37 18.24 C61.44 11.03, 75.11 5.82, 88.05 2.73 C100.99 -0.36, 121.5 -0.47, 128.03 -0.27 C134.55 -0.08, 127.5 1.88, 127.21 3.9" stroke="#1e1e1e" stroke-width="2" fill="none"></path></g><g stroke-linecap="round" transform="translate(294.9999542236328 76.99993896484375) rotate(0 64.33338928222656 64.33338928222656)"><path d="M35.85 5.75 C44.12 1.07, 57.2 0.44, 67.24 1.02 C77.28 1.61, 87.42 4.63, 96.09 9.24 C104.75 13.85, 113.98 20.3, 119.24 28.69 C124.51 37.08, 126.92 49.45, 127.68 59.59 C128.44 69.74, 127.56 80.41, 123.79 89.56 C120.03 98.7, 112.71 108.32, 105.09 114.44 C97.48 120.57, 87.86 124.38, 78.1 126.31 C68.35 128.25, 56.22 128.71, 46.55 126.07 C36.89 123.43, 27.22 117.25, 20.09 110.49 C12.97 103.74, 7 94.98, 3.82 85.55 C0.64 76.13, -0.58 63.69, 1.04 53.93 C2.66 44.17, 6.9 35.44, 13.54 27.01 C20.17 18.59, 35.33 7.3, 40.86 3.38 C46.39 -0.54, 46.17 2.32, 46.74 3.48 M55.9 1.97 C64.95 -0.17, 76.36 0.22, 85.73 3.35 C95.1 6.48, 105.45 13.09, 112.1 20.74 C118.75 28.39, 123.23 39.52, 125.64 49.23 C128.04 58.95, 128.74 69.55, 126.51 79.02 C124.27 88.49, 118.78 98.66, 112.24 106.04 C105.7 113.43, 96.27 119.56, 87.25 123.34 C78.22 127.12, 67.68 129.54, 58.1 128.74 C48.51 127.93, 37.93 124.32, 29.72 118.49 C21.51 112.67, 13.81 102.72, 8.84 93.77 C3.88 84.83, 0.38 74.62, -0.06 64.82 C-0.5 55.02, 1.75 43.63, 6.2 34.98 C10.64 26.33, 18.42 18.87, 26.62 12.91 C34.82 6.94, 50.49 0.86, 55.39 -0.82 C60.3 -2.51, 55.97 1.51, 56.04 2.8" stroke="#1e1e1e" stroke-width="2" fill="none"></path></g><g stroke-linecap="round" transform="translate(88.99978784624287 44.903051078116846) rotate(0 11.299625716746604 10.808328597468176)"><path d="M11.21 0.01 C13.52 -0.06, 16.55 1.12, 18.38 2.56 C20.22 4, 21.74 6.29, 22.21 8.65 C22.68 11, 22.42 14.67, 21.2 16.71 C19.97 18.74, 17.14 20.2, 14.87 20.86 C12.6 21.52, 9.77 21.5, 7.58 20.65 C5.38 19.79, 2.95 17.67, 1.72 15.75 C0.48 13.83, -0.3 11.31, 0.17 9.12 C0.64 6.94, 2.67 4.22, 4.55 2.65 C6.43 1.09, 10.15 0.15, 11.44 -0.29 C12.74 -0.72, 12.26 -0.21, 12.33 0.06 M12 0.61 C14.19 0.61, 16.6 1.13, 18.31 2.65 C20.03 4.16, 21.73 7.36, 22.28 9.71 C22.82 12.06, 22.75 14.76, 21.59 16.76 C20.43 18.76, 17.65 20.98, 15.31 21.69 C12.98 22.41, 9.81 21.94, 7.6 21.05 C5.38 20.16, 3.38 18.5, 2.04 16.36 C0.71 14.23, -0.9 10.62, -0.43 8.26 C0.04 5.9, 2.77 3.66, 4.88 2.23 C6.99 0.79, 11.15 -0.11, 12.24 -0.35 C13.33 -0.6, 11.39 0.51, 11.4 0.77" stroke="none" stroke-width="0" fill="#ced4da"></path><path d="M10.99 -0.48 C13.24 -0.68, 16.21 1.17, 18.13 2.67 C20.05 4.16, 21.92 6.32, 22.5 8.48 C23.08 10.65, 22.74 13.64, 21.63 15.67 C20.53 17.71, 18.11 19.72, 15.88 20.69 C13.65 21.67, 10.6 22.24, 8.25 21.53 C5.9 20.83, 3.18 18.51, 1.77 16.46 C0.37 14.42, -0.45 11.52, -0.19 9.26 C0.08 7, 1.48 4.43, 3.38 2.9 C5.28 1.37, 9.83 0.49, 11.2 0.11 C12.57 -0.27, 11.66 0.39, 11.6 0.61 M9.97 0.35 C12.31 -0.31, 15.64 -0.09, 17.7 0.94 C19.76 1.97, 21.63 4.23, 22.34 6.52 C23.06 8.82, 23 12.33, 21.97 14.72 C20.95 17.12, 18.42 19.79, 16.2 20.89 C13.99 22, 10.84 22.01, 8.68 21.34 C6.53 20.68, 4.66 18.75, 3.26 16.93 C1.87 15.11, 0.35 12.66, 0.3 10.44 C0.26 8.21, 1.58 5.3, 3.01 3.6 C4.43 1.89, 7.87 0.84, 8.85 0.19 C9.84 -0.45, 8.75 -0.43, 8.91 -0.28" stroke="#1e1e1e" stroke-width="1" fill="none"></path></g><g stroke-linecap="round" transform="translate(150.90206667285472 36.05987722370986) rotate(0 11.299625716746604 10.808328597468176)"><path d="M11.87 0.41 C14.1 0.38, 16.73 1.15, 18.48 2.67 C20.22 4.2, 21.86 7.22, 22.35 9.55 C22.83 11.88, 22.56 14.67, 21.36 16.66 C20.17 18.65, 17.48 20.76, 15.16 21.48 C12.84 22.2, 9.67 21.86, 7.44 20.99 C5.22 20.11, 3.09 18.33, 1.82 16.23 C0.54 14.13, -0.69 10.71, -0.21 8.38 C0.27 6.06, 2.54 3.7, 4.68 2.26 C6.82 0.83, 11.31 0.06, 12.64 -0.2 C13.97 -0.47, 12.67 0.45, 12.66 0.68 M10.27 -0.54 C12.61 -1.08, 15.88 0.16, 17.92 1.53 C19.96 2.91, 21.82 5.46, 22.52 7.71 C23.22 9.95, 23.22 12.95, 22.12 14.99 C21.02 17.04, 18.01 18.9, 15.93 19.97 C13.84 21.05, 11.89 21.88, 9.61 21.44 C7.34 21.01, 3.77 19.17, 2.27 17.35 C0.78 15.53, 0.56 12.83, 0.63 10.53 C0.7 8.24, 1.11 5.37, 2.71 3.59 C4.3 1.82, 9.03 0.33, 10.2 -0.13 C11.37 -0.59, 9.82 0.68, 9.72 0.84" stroke="none" stroke-width="0" fill="#ced4da"></path><path d="M9.82 0.28 C12.12 -0.33, 15.43 0.06, 17.5 1.14 C19.57 2.22, 21.48 4.51, 22.22 6.77 C22.96 9.03, 22.9 12.39, 21.93 14.7 C20.96 17.02, 18.58 19.57, 16.4 20.68 C14.22 21.79, 11.07 21.96, 8.84 21.37 C6.61 20.78, 4.46 18.97, 3.02 17.16 C1.58 15.35, 0.22 12.76, 0.2 10.51 C0.19 8.25, 1.38 5.37, 2.92 3.64 C4.47 1.91, 8.3 0.75, 9.46 0.12 C10.62 -0.51, 9.78 -0.32, 9.89 -0.16 M9.81 -0.49 C12.03 -0.84, 15.46 0.53, 17.46 1.93 C19.46 3.34, 21.2 5.79, 21.82 7.93 C22.45 10.06, 22.13 12.56, 21.21 14.77 C20.3 16.98, 18.54 20.16, 16.36 21.21 C14.18 22.26, 10.45 21.82, 8.12 21.06 C5.8 20.29, 3.7 18.57, 2.42 16.62 C1.14 14.67, 0.28 11.5, 0.42 9.34 C0.55 7.17, 1.49 5.13, 3.24 3.62 C4.99 2.12, 9.84 0.96, 10.92 0.32 C12 -0.31, 9.79 -0.27, 9.73 -0.19" stroke="#1e1e1e" stroke-width="1" fill="none"></path></g><g stroke-linecap="round" transform="translate(112.58162227360876 84.2060840935776) rotate(0 11.299625716746604 10.808328597468176)"><path d="M9.78 0.59 C12.07 0.16, 15.15 0.65, 17.25 1.81 C19.35 2.97, 21.59 5.32, 22.38 7.53 C23.17 9.74, 22.88 13.03, 22 15.08 C21.12 17.12, 19.29 18.66, 17.12 19.79 C14.94 20.91, 11.4 22.12, 8.96 21.83 C6.53 21.54, 4.02 19.96, 2.49 18.08 C0.96 16.2, -0.34 12.85, -0.24 10.55 C-0.14 8.24, 1.33 6.06, 3.09 4.26 C4.85 2.47, 8.98 0.4, 10.31 -0.22 C11.63 -0.83, 11 0.41, 11.06 0.56 M13.58 0.56 C15.91 0.66, 18.69 1.51, 20.12 3.37 C21.55 5.22, 22.22 9.29, 22.19 11.7 C22.15 14.1, 21.45 16.06, 19.93 17.79 C18.41 19.53, 15.43 21.75, 13.06 22.09 C10.68 22.44, 7.75 21.07, 5.69 19.84 C3.63 18.62, 1.56 16.93, 0.7 14.76 C-0.16 12.6, -0.42 9.14, 0.51 6.86 C1.45 4.57, 4.22 2.24, 6.31 1.03 C8.41 -0.18, 11.92 -0.2, 13.08 -0.4 C14.23 -0.6, 13.27 -0.57, 13.25 -0.17" stroke="none" stroke-width="0" fill="#ced4da"></path><path d="M13.04 0.29 C15.4 0.48, 18.51 1.93, 20.17 3.67 C21.84 5.41, 23.1 8.29, 23.03 10.75 C22.95 13.22, 21.47 16.62, 19.72 18.45 C17.97 20.27, 14.93 21.41, 12.52 21.7 C10.11 21.99, 7.28 21.51, 5.27 20.2 C3.27 18.89, 1.24 16.11, 0.5 13.82 C-0.25 11.52, -0.01 8.51, 0.82 6.44 C1.65 4.37, 3.27 2.45, 5.48 1.4 C7.69 0.36, 12.53 0.28, 14.08 0.17 C15.62 0.05, 14.84 0.6, 14.75 0.74 M10.24 -0.31 C12.43 -0.54, 15.09 0.84, 17.19 2.17 C19.29 3.5, 22.14 5.42, 22.83 7.67 C23.52 9.92, 22.54 13.47, 21.35 15.69 C20.16 17.9, 17.93 20.04, 15.68 20.97 C13.42 21.89, 10.03 21.77, 7.83 21.23 C5.63 20.68, 3.74 19.68, 2.49 17.7 C1.23 15.72, 0.26 11.74, 0.31 9.36 C0.37 6.97, 1.22 4.91, 2.84 3.39 C4.45 1.87, 8.68 0.75, 9.98 0.24 C11.28 -0.26, 10.54 0.29, 10.63 0.34" stroke="#1e1e1e" stroke-width="1" fill="none"></path></g><g stroke-linecap="round" transform="translate(82.61305460949129 129.40456447119564) rotate(0 11.299625716746604 10.808328597468176)"><path d="M12.68 0.18 C15.01 0.22, 18.23 1.92, 19.81 3.5 C21.38 5.09, 21.94 7.45, 22.12 9.7 C22.31 11.95, 22.17 15.12, 20.91 17 C19.64 18.89, 16.99 20.38, 14.55 21.03 C12.12 21.69, 8.48 21.88, 6.31 20.93 C4.13 19.99, 2.54 17.53, 1.52 15.37 C0.49 13.21, -0.48 10.16, 0.14 7.97 C0.76 5.78, 3.12 3.45, 5.23 2.21 C7.34 0.97, 11.34 0.76, 12.78 0.53 C14.22 0.3, 13.81 0.67, 13.87 0.83 M12.29 0.08 C14.68 0.05, 16.88 1.09, 18.68 2.63 C20.48 4.18, 22.75 7.03, 23.09 9.34 C23.42 11.65, 22 14.58, 20.71 16.49 C19.41 18.4, 17.6 20, 15.33 20.82 C13.05 21.64, 9.46 22.27, 7.08 21.41 C4.71 20.55, 2.29 17.8, 1.05 15.67 C-0.19 13.53, -0.81 10.83, -0.37 8.57 C0.06 6.31, 1.55 3.55, 3.66 2.11 C5.77 0.67, 10.98 0.29, 12.28 -0.07 C13.58 -0.42, 11.62 -0.28, 11.46 0" stroke="none" stroke-width="0" fill="#ced4da"></path><path d="M11.22 -0.05 C13.67 -0.29, 17.32 0.7, 19.23 2.21 C21.14 3.73, 22.35 6.67, 22.67 9.02 C22.99 11.37, 22.49 14.31, 21.13 16.32 C19.77 18.33, 16.89 20.38, 14.5 21.08 C12.11 21.77, 8.96 21.32, 6.79 20.47 C4.62 19.61, 2.61 17.89, 1.48 15.94 C0.36 13.99, -0.43 11.08, 0.03 8.77 C0.49 6.46, 2.33 3.58, 4.24 2.09 C6.15 0.6, 10.17 0.18, 11.49 -0.17 C12.81 -0.52, 12.1 -0.18, 12.15 0 M8.9 -0.02 C11.16 -0.74, 14.96 -0.12, 17.18 0.96 C19.41 2.03, 21.46 4.1, 22.25 6.41 C23.04 8.72, 22.69 12.48, 21.93 14.81 C21.18 17.14, 19.89 19.34, 17.72 20.38 C15.55 21.42, 11.39 21.5, 8.92 21.03 C6.45 20.56, 4.38 19.18, 2.93 17.56 C1.47 15.93, 0.25 13.5, 0.2 11.27 C0.15 9.03, 1.24 5.92, 2.65 4.13 C4.05 2.35, 7.43 1.27, 8.64 0.57 C9.84 -0.14, 9.74 -0.17, 9.85 -0.09" stroke="#1e1e1e" stroke-width="1" fill="none"></path></g><g stroke-linecap="round" transform="translate(139.6024634454765 140.70416769857385) rotate(0 11.299625716746604 10.808328597468176)"><path d="M13.61 0.68 C15.82 1.19, 18.8 2.97, 20.26 4.73 C21.72 6.49, 22.4 8.92, 22.35 11.25 C22.29 13.57, 21.52 17.01, 19.92 18.68 C18.32 20.35, 15.19 21.02, 12.74 21.27 C10.28 21.53, 7.17 21.49, 5.18 20.21 C3.19 18.92, 1.45 15.82, 0.8 13.53 C0.15 11.24, 0.33 8.52, 1.28 6.47 C2.23 4.43, 4.24 2.28, 6.48 1.28 C8.72 0.28, 13.36 0.6, 14.7 0.47 C16.05 0.35, 14.58 0.37, 14.57 0.54 M11.2 -0.25 C13.51 -0.48, 16.59 1.29, 18.42 2.76 C20.24 4.22, 21.6 6.41, 22.15 8.55 C22.71 10.7, 22.93 13.68, 21.75 15.64 C20.57 17.59, 17.45 19.47, 15.09 20.28 C12.73 21.09, 9.86 21, 7.58 20.48 C5.29 19.96, 2.65 19.07, 1.39 17.17 C0.14 15.28, -0.31 11.56, 0.06 9.11 C0.43 6.67, 1.69 4.06, 3.6 2.51 C5.51 0.96, 10.25 0.1, 11.51 -0.21 C12.78 -0.52, 11.27 0.45, 11.21 0.65" stroke="none" stroke-width="0" fill="#ced4da"></path><path d="M13.88 0.49 C16.21 0.78, 18.89 2.23, 20.34 4.01 C21.8 5.78, 22.83 8.73, 22.61 11.13 C22.39 13.53, 20.72 16.69, 19.02 18.39 C17.32 20.1, 14.75 21.14, 12.42 21.37 C10.09 21.6, 7.1 21.11, 5.06 19.79 C3.01 18.47, 0.86 15.67, 0.14 13.44 C-0.57 11.21, -0.2 8.49, 0.79 6.43 C1.78 4.37, 3.86 2.14, 6.08 1.08 C8.3 0.01, 12.67 0.02, 14.11 0.03 C15.55 0.03, 14.8 0.9, 14.75 1.11 M12.01 0.04 C14.45 0.2, 18.12 2.44, 19.93 4.04 C21.73 5.64, 22.85 7.38, 22.85 9.62 C22.85 11.85, 21.46 15.46, 19.93 17.45 C18.39 19.43, 15.86 21, 13.63 21.52 C11.41 22.04, 8.67 21.72, 6.58 20.56 C4.49 19.39, 2.06 16.57, 1.11 14.53 C0.15 12.49, 0.27 10.46, 0.85 8.33 C1.43 6.19, 2.66 3, 4.59 1.71 C6.51 0.41, 10.95 0.74, 12.39 0.55 C13.83 0.36, 13.14 0.37, 13.23 0.57" stroke="#1e1e1e" stroke-width="1" fill="none"></path></g><g stroke-linecap="round" transform="translate(186.76604234273478 127.4393984834503) rotate(0 11.299625716746604 10.808328597468176)"><path d="M10.76 0.37 C13.06 0.21, 16.86 0.99, 18.74 2.36 C20.63 3.73, 21.61 6.29, 22.08 8.59 C22.56 10.9, 22.78 14.08, 21.62 16.18 C20.46 18.28, 17.44 20.33, 15.12 21.2 C12.8 22.07, 9.93 22.13, 7.72 21.39 C5.5 20.65, 3.1 18.87, 1.83 16.79 C0.57 14.71, -0.12 11.16, 0.15 8.91 C0.42 6.66, 1.57 4.77, 3.46 3.28 C5.34 1.78, 10.05 0.39, 11.46 -0.05 C12.86 -0.49, 11.86 0.48, 11.87 0.64 M11.46 0.53 C13.64 0.43, 16.69 0.94, 18.43 2.36 C20.17 3.78, 21.56 6.76, 21.88 9.07 C22.21 11.37, 21.42 14.19, 20.37 16.17 C19.33 18.16, 17.85 20.24, 15.64 20.98 C13.42 21.73, 9.51 21.4, 7.1 20.65 C4.69 19.9, 2.37 18.44, 1.19 16.48 C0.01 14.51, -0.57 11.19, 0.01 8.86 C0.59 6.53, 2.77 4, 4.68 2.48 C6.58 0.96, 10.31 0.13, 11.45 -0.27 C12.59 -0.67, 11.58 -0.04, 11.51 0.07" stroke="none" stroke-width="0" fill="#ced4da"></path><path d="M10.36 -0.41 C12.73 -0.66, 16.28 0.66, 18.24 2.14 C20.21 3.63, 21.62 6.29, 22.14 8.51 C22.66 10.73, 22.49 13.46, 21.35 15.48 C20.21 17.49, 17.53 19.7, 15.29 20.6 C13.05 21.5, 10.19 21.57, 7.94 20.87 C5.68 20.17, 3.13 18.29, 1.76 16.41 C0.39 14.52, -0.66 11.87, -0.28 9.58 C0.1 7.29, 2.16 4.21, 4.06 2.65 C5.96 1.1, 9.89 0.59, 11.11 0.23 C12.34 -0.13, 11.47 0.34, 11.43 0.47 M12.33 -0.34 C14.55 -0.27, 18.16 1.44, 19.9 3.29 C21.64 5.14, 22.73 8.38, 22.79 10.77 C22.86 13.16, 21.91 15.81, 20.29 17.64 C18.66 19.47, 15.35 21.39, 13.07 21.76 C10.79 22.13, 8.65 21.04, 6.59 19.86 C4.54 18.68, 1.67 16.61, 0.74 14.65 C-0.19 12.7, 0.22 10.22, 1.03 8.13 C1.84 6.03, 3.52 3.35, 5.6 2.09 C7.68 0.83, 12.27 0.74, 13.51 0.56 C14.75 0.38, 13.1 1.01, 13.04 1" stroke="#1e1e1e" stroke-width="1" fill="none"></path></g><g stroke-linecap="round" transform="translate(201.50467480398325 76.34546512133284) rotate(0 11.299625716746604 10.808328597468176)"><path d="M14.11 0.67 C16.41 1.05, 19.3 2.26, 20.77 4.06 C22.24 5.86, 23.12 9.1, 22.95 11.5 C22.77 13.89, 21.41 16.77, 19.7 18.45 C17.99 20.14, 15.22 21.43, 12.69 21.61 C10.17 21.78, 6.51 20.77, 4.55 19.48 C2.58 18.18, 1.52 16, 0.92 13.81 C0.32 11.62, -0.04 8.45, 0.94 6.35 C1.92 4.25, 4.54 2.17, 6.79 1.2 C9.04 0.23, 13.01 0.6, 14.43 0.52 C15.85 0.43, 15.35 0.47, 15.31 0.69 M9.9 -0.5 C12.18 -0.67, 15.24 1.16, 17.27 2.52 C19.3 3.88, 21.37 5.59, 22.06 7.65 C22.76 9.72, 22.31 12.82, 21.44 14.92 C20.57 17.03, 18.94 19.13, 16.84 20.26 C14.74 21.4, 11.27 22.27, 8.85 21.75 C6.43 21.22, 3.85 19.06, 2.34 17.12 C0.82 15.17, -0.36 12.47, -0.26 10.09 C-0.15 7.72, 1.36 4.44, 2.95 2.85 C4.55 1.27, 8.21 1, 9.3 0.58 C10.4 0.17, 9.46 0.38, 9.53 0.37" stroke="none" stroke-width="0" fill="#ced4da"></path><path d="M11.86 0.03 C14.12 -0.04, 16.89 0.92, 18.64 2.48 C20.38 4.04, 22 7.05, 22.32 9.4 C22.65 11.76, 21.89 14.7, 20.58 16.59 C19.27 18.48, 16.71 19.97, 14.47 20.74 C12.23 21.51, 9.37 22.06, 7.13 21.21 C4.9 20.37, 2.18 17.84, 1.07 15.66 C-0.03 13.49, -0.1 10.49, 0.5 8.18 C1.1 5.88, 2.76 3.16, 4.67 1.85 C6.59 0.53, 10.66 0.54, 11.99 0.3 C13.32 0.07, 12.72 0.35, 12.65 0.43 M12.38 0.11 C14.77 -0.01, 17.54 0.74, 19.3 2.43 C21.05 4.12, 22.76 7.86, 22.91 10.24 C23.06 12.63, 21.64 14.84, 20.2 16.74 C18.76 18.65, 16.38 20.96, 14.25 21.67 C12.12 22.37, 9.51 21.89, 7.4 20.98 C5.29 20.07, 2.71 18.3, 1.61 16.21 C0.51 14.11, 0.17 10.71, 0.78 8.42 C1.4 6.14, 3.54 3.96, 5.31 2.5 C7.08 1.04, 10.17 0.05, 11.39 -0.35 C12.61 -0.74, 12.43 -0.05, 12.64 0.13" stroke="#1e1e1e" stroke-width="1" fill="none"></path></g><g stroke-linecap="round" transform="translate(48.71419994861989 92.06668057645399) rotate(0 11.299625716746604 10.808328597468176)"><path d="M12.93 0.43 C15.31 0.61, 18.3 2.31, 19.91 3.94 C21.53 5.56, 22.65 7.82, 22.64 10.18 C22.63 12.53, 21.35 16.21, 19.83 18.07 C18.31 19.94, 15.88 20.93, 13.55 21.36 C11.21 21.8, 7.93 21.83, 5.82 20.69 C3.71 19.56, 1.74 16.73, 0.88 14.55 C0.02 12.37, -0.08 9.77, 0.65 7.59 C1.39 5.41, 3.07 2.75, 5.3 1.49 C7.52 0.22, 12.55 0.22, 14 0.01 C15.45 -0.21, 14.09 0.04, 13.98 0.19 M10.23 -0.18 C12.35 -0.42, 15.62 1.05, 17.58 2.45 C19.55 3.84, 21.27 6.02, 22 8.19 C22.73 10.37, 22.98 13.47, 21.97 15.49 C20.96 17.51, 18.23 19.39, 15.96 20.33 C13.68 21.26, 10.73 21.77, 8.32 21.1 C5.92 20.43, 2.82 18.25, 1.53 16.3 C0.23 14.34, 0.25 11.61, 0.56 9.36 C0.87 7.11, 1.87 4.38, 3.39 2.8 C4.91 1.22, 8.51 0.18, 9.69 -0.14 C10.86 -0.45, 10.3 0.62, 10.43 0.9" stroke="none" stroke-width="0" fill="#ced4da"></path><path d="M9.63 -0.13 C11.94 -0.6, 15.18 0.08, 17.18 1.36 C19.18 2.64, 20.8 5.33, 21.64 7.53 C22.48 9.74, 23.08 12.4, 22.23 14.56 C21.38 16.73, 18.8 19.35, 16.56 20.54 C14.31 21.72, 11.18 22.15, 8.76 21.65 C6.35 21.15, 3.48 19.3, 2.07 17.52 C0.66 15.74, 0.13 13.34, 0.28 10.97 C0.44 8.6, 1.43 5.08, 3.02 3.28 C4.6 1.49, 8.57 0.68, 9.8 0.19 C11.03 -0.29, 10.28 0.21, 10.39 0.37 M12.56 -0.47 C14.95 -0.58, 17.24 0.97, 18.98 2.75 C20.72 4.53, 22.66 7.81, 23 10.22 C23.34 12.63, 22.33 15.3, 21.02 17.2 C19.72 19.1, 17.5 20.92, 15.16 21.62 C12.83 22.32, 9.27 22.52, 7.01 21.41 C4.75 20.31, 2.8 17.08, 1.62 14.99 C0.44 12.91, -0.54 10.95, -0.07 8.91 C0.41 6.87, 2.5 4.27, 4.45 2.76 C6.39 1.24, 10.27 0.11, 11.61 -0.19 C12.95 -0.49, 12.43 0.83, 12.49 0.98" stroke="#1e1e1e" stroke-width="1" fill="none"></path></g><g stroke-linecap="round" transform="translate(153.84974818636772 104.34886679770483) rotate(0 11.299625716746604 10.808328597468176)"><path d="M11.53 -0.26 C13.87 -0.27, 17.71 1.36, 19.53 2.98 C21.35 4.61, 22.2 7.19, 22.47 9.5 C22.74 11.81, 22.51 14.9, 21.16 16.85 C19.82 18.8, 16.74 20.58, 14.4 21.2 C12.05 21.83, 9.32 21.46, 7.11 20.59 C4.9 19.73, 2.31 18.11, 1.13 16.03 C-0.04 13.95, -0.43 10.44, 0.07 8.11 C0.57 5.79, 2.14 3.44, 4.14 2.07 C6.14 0.7, 10.54 0.18, 12.09 -0.12 C13.65 -0.41, 13.43 0.11, 13.47 0.29 M10.76 0.45 C12.98 0.19, 16.24 0.69, 18.11 1.98 C19.98 3.27, 21.47 6.01, 22 8.19 C22.53 10.38, 22.43 12.91, 21.28 15.08 C20.13 17.25, 17.4 20.19, 15.12 21.22 C12.85 22.25, 9.88 22.1, 7.62 21.26 C5.35 20.42, 2.81 18.1, 1.53 16.18 C0.24 14.26, -0.54 11.9, -0.11 9.72 C0.33 7.53, 2.29 4.66, 4.14 3.07 C5.98 1.48, 9.79 0.68, 10.96 0.17 C12.13 -0.35, 11.18 -0.06, 11.16 -0.03" stroke="none" stroke-width="0" fill="#ced4da"></path><path d="M11.33 0.42 C13.63 0.3, 16.38 0.96, 18.26 2.32 C20.15 3.67, 22.11 6.29, 22.63 8.53 C23.16 10.76, 22.63 13.61, 21.4 15.72 C20.17 17.83, 17.5 20.29, 15.26 21.2 C13.03 22.11, 10.34 22.05, 7.99 21.19 C5.65 20.32, 2.5 18.07, 1.21 16.02 C-0.07 13.96, -0.19 11.05, 0.28 8.85 C0.76 6.66, 2.2 4.29, 4.07 2.83 C5.95 1.37, 10.33 0.51, 11.55 0.12 C12.78 -0.27, 11.37 0.37, 11.42 0.48 M11.66 0.29 C14.06 0.12, 16.92 1.55, 18.78 2.97 C20.64 4.4, 22.31 6.6, 22.83 8.84 C23.35 11.07, 23.26 14.43, 21.92 16.38 C20.58 18.32, 17.05 19.73, 14.79 20.49 C12.52 21.25, 10.41 21.68, 8.32 20.95 C6.24 20.22, 3.69 17.97, 2.29 16.11 C0.89 14.24, -0.46 11.98, -0.09 9.77 C0.29 7.55, 2.77 4.45, 4.55 2.83 C6.33 1.21, 9.44 0.42, 10.6 0.07 C11.76 -0.29, 11.54 0.42, 11.51 0.68" stroke="#1e1e1e" stroke-width="1" fill="none"></path></g><g stroke-linecap="round" transform="translate(103.73844279685966 174.1117645965615) rotate(0 11.299625716746604 10.808328597468176)"><path d="M14.02 0.74 C16.3 1.12, 19.14 2.46, 20.57 4.31 C22.01 6.16, 22.84 9.52, 22.62 11.85 C22.4 14.17, 20.9 16.67, 19.26 18.25 C17.63 19.84, 15.23 21.15, 12.81 21.33 C10.39 21.52, 6.81 20.69, 4.74 19.36 C2.66 18.04, 1 15.47, 0.35 13.38 C-0.3 11.3, -0.18 8.94, 0.81 6.88 C1.81 4.82, 4.1 2.13, 6.32 1.03 C8.54 -0.07, 12.74 0.34, 14.15 0.26 C15.57 0.17, 14.81 0.28, 14.81 0.52 M11.69 -0.14 C13.93 -0.26, 16.49 0.6, 18.38 2.09 C20.27 3.59, 22.58 6.49, 23.01 8.84 C23.44 11.2, 22.42 14.19, 20.94 16.21 C19.46 18.22, 16.42 20.05, 14.12 20.92 C11.82 21.8, 9.24 22.24, 7.12 21.45 C5 20.67, 2.5 18.28, 1.38 16.22 C0.26 14.16, -0.05 11.37, 0.4 9.08 C0.86 6.79, 2.35 4.01, 4.12 2.47 C5.89 0.92, 9.7 0.16, 11.02 -0.2 C12.34 -0.56, 11.86 0.07, 12.02 0.29" stroke="none" stroke-width="0" fill="#ced4da"></path><path d="M9.86 0.31 C12.09 -0.1, 15.16 0.51, 17.25 1.84 C19.35 3.18, 21.69 6.13, 22.45 8.3 C23.21 10.47, 22.88 12.81, 21.79 14.87 C20.71 16.93, 18.17 19.58, 15.93 20.67 C13.69 21.76, 10.6 22, 8.34 21.42 C6.08 20.84, 3.73 19.16, 2.36 17.19 C1 15.23, -0.03 11.9, 0.15 9.64 C0.33 7.39, 1.71 5.3, 3.45 3.68 C5.18 2.07, 9.22 0.48, 10.55 -0.05 C11.89 -0.57, 11.34 0.32, 11.48 0.54 M13.18 0.81 C15.44 0.81, 18.69 1.28, 20.19 3 C21.7 4.72, 22.25 8.62, 22.22 11.15 C22.2 13.67, 21.53 16.5, 20.02 18.17 C18.51 19.85, 15.44 20.72, 13.18 21.2 C10.91 21.67, 8.48 22.18, 6.44 21.04 C4.39 19.9, 1.85 16.55, 0.89 14.35 C-0.08 12.16, -0.18 10.1, 0.65 7.87 C1.48 5.63, 3.72 2.26, 5.87 0.95 C8.02 -0.37, 12.3 0.05, 13.56 -0.03 C14.81 -0.1, 13.47 0.29, 13.41 0.5" stroke="#1e1e1e" stroke-width="1" fill="none"></path></g><g stroke-linecap="round" transform="translate(177.9228628659857 180.00719509169255) rotate(0 11.299625716746604 10.808328597468176)"><path d="M12.23 -0.13 C14.55 -0.09, 17.31 1.73, 18.98 3.3 C20.66 4.88, 22.07 7.11, 22.3 9.34 C22.52 11.57, 21.7 14.73, 20.34 16.67 C18.98 18.62, 16.32 20.32, 14.15 20.99 C11.98 21.66, 9.47 21.6, 7.3 20.68 C5.13 19.77, 2.33 17.51, 1.14 15.5 C-0.04 13.5, -0.37 10.84, 0.18 8.64 C0.72 6.43, 2.3 3.67, 4.42 2.26 C6.53 0.84, 11.43 0.5, 12.88 0.15 C14.32 -0.2, 13.17 0.04, 13.09 0.19 M8.85 0.24 C11.15 -0.46, 14.45 -0.33, 16.6 0.84 C18.75 2, 20.76 4.94, 21.75 7.23 C22.74 9.53, 23.29 12.42, 22.55 14.61 C21.81 16.79, 19.42 19.23, 17.31 20.33 C15.2 21.42, 12.3 21.74, 9.88 21.19 C7.47 20.63, 4.52 18.7, 2.83 17.01 C1.15 15.33, -0.19 13.22, -0.21 11.07 C-0.23 8.91, 1.13 5.86, 2.73 4.08 C4.33 2.3, 8.26 1.03, 9.41 0.37 C10.56 -0.3, 9.5 -0.03, 9.65 0.09" stroke="none" stroke-width="0" fill="#ced4da"></path><path d="M9.56 0.39 C11.73 -0.27, 14.32 -0.01, 16.39 1.04 C18.46 2.1, 21.02 4.47, 21.97 6.72 C22.93 8.96, 22.92 12.28, 22.13 14.53 C21.33 16.77, 19.36 18.97, 17.2 20.18 C15.04 21.38, 11.51 22.17, 9.18 21.74 C6.84 21.31, 4.73 19.4, 3.19 17.59 C1.65 15.78, 0.01 13.08, -0.05 10.89 C-0.11 8.7, 1.19 6.21, 2.82 4.47 C4.45 2.73, 8.47 1.08, 9.74 0.43 C11.01 -0.22, 10.41 0.39, 10.43 0.59 M13.47 0 C15.98 0.17, 18.83 1.39, 20.32 3.22 C21.8 5.05, 22.28 8.58, 22.38 10.97 C22.49 13.37, 22.47 15.82, 20.95 17.57 C19.43 19.31, 15.66 20.9, 13.26 21.44 C10.85 21.98, 8.68 21.82, 6.51 20.81 C4.33 19.81, 1.21 17.57, 0.19 15.43 C-0.83 13.28, -0.48 10.16, 0.4 7.92 C1.28 5.69, 3.39 3.42, 5.48 2.02 C7.57 0.61, 11.78 -0.34, 12.93 -0.5 C14.09 -0.66, 12.45 0.79, 12.42 1.06" stroke="#1e1e1e" stroke-width="1" fill="none"></path></g><g stroke-linecap="round" transform="translate(43.31004970574105 163.79469938431924) rotate(0 11.299625716746604 10.808328597468176)"><path d="M10.64 -0.39 C12.86 -0.63, 16.22 0.32, 18.14 1.88 C20.06 3.45, 21.65 6.69, 22.17 9.01 C22.69 11.32, 22.37 13.84, 21.25 15.79 C20.13 17.74, 17.6 19.82, 15.43 20.69 C13.25 21.55, 10.44 21.6, 8.18 20.96 C5.92 20.32, 3.2 18.81, 1.86 16.86 C0.53 14.91, -0.09 11.61, 0.18 9.26 C0.46 6.91, 1.69 4.37, 3.52 2.77 C5.36 1.16, 9.9 0.02, 11.19 -0.34 C12.47 -0.71, 11.27 0.32, 11.23 0.57 M10.01 0.72 C12.39 0.41, 15.48 0.87, 17.52 2.12 C19.56 3.37, 21.59 6.02, 22.25 8.21 C22.9 10.39, 22.53 13.22, 21.44 15.23 C20.35 17.23, 17.78 19.19, 15.72 20.22 C13.65 21.25, 11.25 21.89, 9.05 21.41 C6.85 20.94, 3.99 19.19, 2.52 17.37 C1.05 15.55, 0.19 12.7, 0.22 10.5 C0.26 8.3, 1.15 5.93, 2.74 4.16 C4.33 2.38, 8.61 0.57, 9.74 -0.16 C10.88 -0.88, 9.38 -0.43, 9.53 -0.19" stroke="none" stroke-width="0" fill="#ced4da"></path><path d="M9.06 0.31 C11.39 -0.24, 14.95 0.41, 17.1 1.47 C19.26 2.52, 21.16 4.43, 22.01 6.66 C22.86 8.88, 23.08 12.6, 22.2 14.83 C21.31 17.07, 18.85 18.92, 16.69 20.08 C14.54 21.23, 11.54 22.13, 9.28 21.78 C7.02 21.44, 4.63 19.75, 3.14 18 C1.64 16.26, 0.34 13.63, 0.3 11.3 C0.26 8.98, 1.21 5.87, 2.9 4.05 C4.58 2.22, 9.19 1.03, 10.42 0.35 C11.64 -0.32, 10.23 -0.14, 10.24 -0.02 M14.17 0.97 C16.53 1.26, 18.88 1.95, 20.3 3.74 C21.71 5.52, 22.68 9.39, 22.66 11.67 C22.63 13.94, 21.71 15.77, 20.18 17.39 C18.64 19, 15.86 20.9, 13.46 21.36 C11.06 21.82, 7.87 21.34, 5.78 20.16 C3.69 18.97, 1.86 16.54, 0.93 14.24 C0 11.94, -0.76 8.52, 0.21 6.37 C1.17 4.22, 4.49 2.39, 6.71 1.35 C8.94 0.32, 12.3 0.3, 13.55 0.18 C14.8 0.06, 14.26 0.42, 14.19 0.62" stroke="#1e1e1e" stroke-width="1" fill="none"></path></g><g stroke-linecap="round" transform="translate(132.72440497773613 201.62386353131308) rotate(0 11.299625716746604 10.808328597468176)"><path d="M11.32 -0.04 C13.67 -0.26, 16.33 0.63, 18.15 2.1 C19.96 3.58, 21.71 6.52, 22.21 8.83 C22.71 11.13, 22.22 13.94, 21.17 15.95 C20.11 17.96, 18.11 20.05, 15.88 20.88 C13.65 21.71, 10.15 21.66, 7.79 20.92 C5.43 20.19, 3.05 18.5, 1.72 16.49 C0.38 14.49, -0.63 11.23, -0.24 8.89 C0.14 6.56, 2.14 4, 4.03 2.48 C5.93 0.96, 9.98 0.15, 11.13 -0.24 C12.27 -0.64, 10.89 -0.2, 10.89 0.1 M12.17 -0.26 C14.44 -0.48, 17.31 0.37, 19 1.99 C20.68 3.62, 21.93 7.04, 22.27 9.5 C22.6 11.95, 22.22 14.73, 21 16.69 C19.78 18.66, 17.2 20.62, 14.93 21.27 C12.66 21.91, 9.54 21.49, 7.4 20.58 C5.26 19.66, 3.31 17.85, 2.08 15.79 C0.84 13.74, -0.29 10.39, -0.01 8.24 C0.27 6.08, 1.83 4.23, 3.78 2.89 C5.74 1.54, 10.54 0.7, 11.73 0.18 C12.92 -0.34, 10.92 -0.33, 10.91 -0.26" stroke="none" stroke-width="0" fill="#ced4da"></path><path d="M12.17 0.32 C14.53 0.35, 18.16 1.41, 19.88 3.03 C21.61 4.64, 22.38 7.56, 22.52 10 C22.66 12.43, 22.11 15.73, 20.71 17.66 C19.32 19.6, 16.48 21.09, 14.15 21.61 C11.81 22.14, 8.88 21.8, 6.7 20.8 C4.52 19.79, 2.07 17.84, 1.07 15.59 C0.08 13.35, 0.12 9.55, 0.74 7.32 C1.36 5.09, 2.77 3.34, 4.8 2.21 C6.83 1.08, 11.53 0.86, 12.92 0.54 C14.31 0.21, 13.1 0.07, 13.14 0.27 M12.22 0.47 C14.49 0.49, 16.55 1.8, 18.24 3.35 C19.93 4.9, 21.88 7.51, 22.34 9.77 C22.81 12.03, 22.29 15.14, 21.04 16.92 C19.79 18.71, 17.24 19.71, 14.84 20.49 C12.44 21.26, 8.88 22.34, 6.64 21.56 C4.39 20.78, 2.46 17.86, 1.39 15.79 C0.32 13.72, -0.32 11.45, 0.2 9.16 C0.72 6.87, 2.6 3.49, 4.54 2.03 C6.47 0.57, 10.63 0.72, 11.79 0.4 C12.94 0.08, 11.41 0.05, 11.48 0.11" stroke="#1e1e1e" stroke-width="1" fill="none"></path></g><g stroke-linecap="round"><g transform="translate(364.40377816203875 101.53286971934716) rotate(0 6.198343345574102 -0.42650179516505915)" fill-rule="evenodd"><path d="M-1.4 1.02 C-1.86 3.05, -4.11 8.85, -1.92 10.02 C0.27 11.2, 9.61 9.76, 11.73 8.07 C13.85 6.38, 9.55 1.42, 10.79 -0.12 C12.03 -1.66, 18.33 -0.08, 19.18 -1.17 C20.03 -2.25, 17.3 -5.39, 15.87 -6.64 C14.43 -7.89, 11.98 -7.91, 10.57 -8.67 C9.16 -9.43, 9.64 -11.15, 7.42 -11.19 C5.19 -11.23, -0.91 -9.9, -2.76 -8.91 C-4.62 -7.93, -3.59 -6.64, -3.72 -5.26 C-3.85 -3.89, -3.71 -1.75, -3.53 -0.69 C-3.34 0.38, -3.21 1.25, -2.61 1.11 C-2 0.96, -0.24 -1.11, 0.11 -1.55" stroke="none" stroke-width="0" fill="#e9ecef" fill-rule="evenodd"></path><path d="M-0.19 -0.62 C-0.21 1.3, -2.89 8.71, -0.98 10.48 C0.93 12.24, 9.31 11.6, 11.25 9.96 C13.19 8.31, 9.71 2.09, 10.65 0.59 C11.58 -0.9, 16.05 1.98, 16.86 0.99 C17.67 0, 16.43 -3.51, 15.52 -5.35 C14.61 -7.18, 13.14 -9.06, 11.42 -10.02 C9.71 -10.99, 7.12 -11.43, 5.22 -11.14 C3.32 -10.85, 1.43 -9.13, 0.04 -8.29 C-1.35 -7.45, -2.44 -7.23, -3.13 -6.08 C-3.83 -4.94, -3.8 -2.48, -4.14 -1.42 C-4.48 -0.36, -5.82 0.25, -5.19 0.3 C-4.56 0.34, -1.31 -1.22, -0.36 -1.13 M-1.75 1.66 C-1.33 3.34, -0.84 7.12, 1.16 8.7 C3.17 10.29, 8.74 12.43, 10.29 11.18 C11.84 9.94, 9.09 2.85, 10.47 1.22 C11.86 -0.4, 17.57 2.16, 18.59 1.45 C19.62 0.73, 17.79 -1.45, 16.62 -3.07 C15.45 -4.69, 13.63 -6.85, 11.56 -8.27 C9.48 -9.68, 6.34 -11.39, 4.18 -11.56 C2.02 -11.73, 0.19 -10.17, -1.41 -9.27 C-3.01 -8.36, -4.51 -7.66, -5.42 -6.14 C-6.32 -4.63, -7.21 -1.2, -6.85 -0.17 C-6.49 0.86, -4.35 -0.19, -3.26 0.03 C-2.17 0.24, -0.88 0.93, -0.32 1.12" stroke="#1e1e1e" stroke-width="1" fill="none"></path></g></g><mask></mask><g stroke-linecap="round"><g transform="translate(347.227237799715 142.0718485432334) rotate(61.72550713694226 6.198343345574102 -0.42650179516506626)" fill-rule="evenodd"><path d="M-2.06 -0.66 C-2.35 1.2, -3.46 9.5, -1.52 11.25 C0.43 13.01, 7.78 11.81, 9.61 9.88 C11.45 7.95, 8.09 0.81, 9.49 -0.34 C10.89 -1.48, 16.95 4.15, 18.02 3.02 C19.09 1.9, 16.82 -5.17, 15.91 -7.07 C15 -8.97, 14.06 -8.04, 12.55 -8.38 C11.03 -8.73, 8.75 -9.39, 6.8 -9.17 C4.86 -8.95, 2.52 -7.5, 0.85 -7.09 C-0.81 -6.68, -1.89 -7.49, -3.18 -6.71 C-4.47 -5.93, -6.4 -3.72, -6.89 -2.42 C-7.38 -1.13, -7.27 0.76, -6.13 1.05 C-4.98 1.34, -0.77 -0.58, -0.03 -0.67" stroke="none" stroke-width="0" fill="#e9ecef" fill-rule="evenodd"></path><path d="M-0.17 -0.8 C-0.42 0.75, -2.79 7.21, -0.8 8.93 C1.19 10.66, 9.83 10.94, 11.77 9.53 C13.7 8.13, 9.97 1.97, 10.79 0.52 C11.61 -0.93, 15.81 1.63, 16.67 0.83 C17.53 0.03, 16.54 -2.83, 15.96 -4.27 C15.38 -5.71, 14.83 -6.88, 13.17 -7.8 C11.51 -8.72, 8.16 -9.47, 5.99 -9.78 C3.81 -10.1, 1.78 -10.1, 0.12 -9.67 C-1.54 -9.24, -2.9 -8.56, -4 -7.19 C-5.09 -5.81, -6.51 -2.68, -6.47 -1.42 C-6.42 -0.15, -4.62 0.3, -3.72 0.42 C-2.81 0.54, -1.75 -0.45, -1.05 -0.69 M-1.72 1.4 C-1.65 3.11, -0.7 8.49, 1.44 10.01 C3.57 11.54, 9.53 12.02, 11.07 10.54 C12.61 9.05, 9.49 2.67, 10.69 1.11 C11.9 -0.44, 17.2 2.24, 18.3 1.21 C19.4 0.17, 17.97 -3.46, 17.29 -5.09 C16.61 -6.71, 16.21 -7.8, 14.22 -8.53 C12.23 -9.27, 7.94 -9.63, 5.35 -9.5 C2.77 -9.36, 0.11 -7.99, -1.29 -7.71 C-2.69 -7.44, -2.16 -9.09, -3.07 -7.83 C-3.98 -6.57, -6.47 -1.51, -6.74 -0.17 C-7.01 1.17, -5.57 -0.11, -4.68 0.22 C-3.78 0.54, -2.16 2.11, -1.37 1.79" stroke="#1e1e1e" stroke-width="1" fill="none"></path></g></g><mask></mask><g stroke-linecap="round"><g transform="translate(324.3227681104209 171.55014341461697) rotate(48.828057066001286 6.198343345574102 -0.42650179516505915)" fill-rule="evenodd"><path d="M-0.25 -1.95 C-0.78 0.07, -4.08 8.12, -1.73 10.1 C0.61 12.07, 12.01 11.33, 13.81 9.92 C15.6 8.51, 8.31 2.89, 9.06 1.64 C9.81 0.39, 16.83 3.26, 18.31 2.41 C19.79 1.56, 18.59 -1.75, 17.93 -3.46 C17.27 -5.17, 16.46 -6.33, 14.37 -7.85 C12.27 -9.36, 7.9 -12.08, 5.36 -12.54 C2.82 -13, 0.55 -11.56, -0.88 -10.61 C-2.32 -9.67, -2.39 -8.02, -3.24 -6.86 C-4.1 -5.69, -5.87 -4.81, -6.01 -3.61 C-6.16 -2.42, -4.87 0.07, -4.09 0.32 C-3.32 0.56, -1.83 -2.5, -1.35 -2.15" stroke="none" stroke-width="0" fill="#e9ecef" fill-rule="evenodd"></path><path d="M-0.6 -0.65 C-0.6 0.78, -2.91 6.97, -0.88 8.74 C1.16 10.51, 9.49 11.05, 11.61 9.97 C13.73 8.9, 10.65 3.66, 11.87 2.27 C13.08 0.87, 17.99 2.67, 18.9 1.6 C19.8 0.52, 18.5 -2.48, 17.31 -4.19 C16.13 -5.9, 13.86 -7.34, 11.79 -8.66 C9.72 -9.98, 6.83 -12.19, 4.88 -12.11 C2.94 -12.03, 1.58 -8.91, 0.12 -8.2 C-1.34 -7.5, -2.85 -9, -3.87 -7.87 C-4.9 -6.74, -5.74 -2.75, -6.03 -1.42 C-6.31 -0.09, -6.58 0.04, -5.57 0.1 C-4.55 0.17, -0.83 -0.86, 0.05 -1.01 M1.29 1.62 C1.73 3.15, -0.27 8.12, 1.32 9.72 C2.91 11.32, 9 12.81, 10.83 11.21 C12.66 9.61, 11.13 1.59, 12.33 0.12 C13.53 -1.36, 17.47 3.23, 18.03 2.38 C18.59 1.53, 16.68 -2.93, 15.7 -4.97 C14.71 -7.01, 14.12 -9.12, 12.11 -9.85 C10.11 -10.59, 5.9 -9.5, 3.67 -9.38 C1.43 -9.26, -0.2 -9.83, -1.29 -9.14 C-2.38 -8.44, -2.09 -6.71, -2.88 -5.22 C-3.68 -3.72, -5.91 -1, -6.07 -0.17 C-6.22 0.65, -4.9 -0.51, -3.84 -0.26 C-2.78 -0.02, -0.14 1.49, 0.3 1.3" stroke="#1e1e1e" stroke-width="1" fill="none"></path></g></g><mask></mask><g stroke-linecap="round"><g transform="translate(376.7315660477335 172.93650452805838) rotate(304.7422920028183 6.198343345574102 -0.42650179516506626)" fill-rule="evenodd"><path d="M-0.21 -2.38 C-0.21 -1.01, -1.99 7.99, 0.24 10.38 C2.48 12.77, 11.12 13.1, 13.19 11.94 C15.27 10.79, 11.73 5.29, 12.68 3.46 C13.62 1.63, 18.53 2.41, 18.85 0.97 C19.16 -0.48, 15.9 -3.72, 14.56 -5.19 C13.23 -6.67, 12.41 -6.83, 10.85 -7.91 C9.29 -8.98, 7.37 -11.54, 5.21 -11.66 C3.06 -11.77, -0.55 -9.16, -2.08 -8.58 C-3.61 -8, -3.07 -9.08, -3.97 -8.18 C-4.87 -7.27, -7.79 -4.17, -7.49 -3.16 C-7.19 -2.14, -3.25 -2.34, -2.18 -2.11 C-1.1 -1.87, -1.44 -1.82, -1.02 -1.75" stroke="none" stroke-width="0" fill="#e9ecef" fill-rule="evenodd"></path><path d="M-0.15 0.42 C0.17 2.25, -1.22 9.15, 0.87 10.97 C2.96 12.79, 10.53 13.01, 12.38 11.33 C14.22 9.65, 11 2.69, 11.94 0.88 C12.89 -0.92, 17.52 1.34, 18.03 0.49 C18.54 -0.35, 15.78 -2.68, 14.99 -4.19 C14.19 -5.69, 15.05 -7.29, 13.26 -8.54 C11.46 -9.78, 6.39 -11.42, 4.2 -11.67 C2.01 -11.92, 1.52 -10.87, 0.12 -10.05 C-1.28 -9.24, -3.11 -8.08, -4.19 -6.78 C-5.26 -5.48, -6.15 -3.49, -6.35 -2.24 C-6.55 -0.99, -6.26 0.35, -5.37 0.71 C-4.48 1.06, -1.73 0.15, -0.99 -0.12 M-1.7 -0.4 C-1.37 1.13, -1.96 7.79, 0.33 9.45 C2.61 11.12, 9.98 10.91, 12 9.61 C14.02 8.32, 11.67 3.16, 12.45 1.67 C13.24 0.18, 16.16 1.8, 16.72 0.69 C17.28 -0.41, 16.81 -3.24, 15.81 -4.97 C14.8 -6.69, 12.28 -8.43, 10.69 -9.66 C9.1 -10.9, 8.28 -12.6, 6.28 -12.37 C4.28 -12.14, 0.32 -9.16, -1.29 -8.29 C-2.9 -7.43, -2.49 -8.35, -3.36 -7.21 C-4.24 -6.06, -6.53 -2.73, -6.56 -1.42 C-6.59 -0.11, -4.42 0.59, -3.54 0.65 C-2.66 0.72, -2.12 -0.64, -1.28 -1.01" stroke="#1e1e1e" stroke-width="1" fill="none"></path></g></g><mask></mask><g stroke-linecap="round"><g transform="translate(318.90214632470287 120.8463972693424) rotate(304.33985591018984 6.198343345574102 -0.42650179516506626)" fill-rule="evenodd"><path d="M1.81 1.23 C2.06 2.79, 0.41 9.69, 2.07 10.92 C3.72 12.14, 10.27 10.41, 11.75 8.58 C13.23 6.75, 9.77 1.24, 10.94 -0.06 C12.11 -1.35, 18.04 1.88, 18.79 0.82 C19.54 -0.24, 16.43 -4.81, 15.44 -6.39 C14.46 -7.96, 14.81 -7.51, 12.88 -8.64 C10.96 -9.76, 6.31 -13.46, 3.89 -13.13 C1.47 -12.8, 0.1 -7.54, -1.62 -6.66 C-3.33 -5.78, -5.49 -8.7, -6.4 -7.85 C-7.31 -7, -7.11 -3.03, -7.09 -1.56 C-7.07 -0.1, -7.61 0.41, -6.28 0.93 C-4.94 1.46, -0.06 2.11, 0.9 1.6" stroke="none" stroke-width="0" fill="#e9ecef" fill-rule="evenodd"></path><path d="M1.2 0.5 C0.92 2.06, -2.19 8.69, -0.51 10.11 C1.17 11.52, 9.2 10.29, 11.27 9 C13.35 7.71, 10.8 3.88, 11.95 2.35 C13.09 0.82, 17.58 0.89, 18.16 -0.2 C18.74 -1.29, 16.55 -2.75, 15.43 -4.19 C14.31 -5.63, 13.1 -7.55, 11.41 -8.85 C9.72 -10.15, 7.31 -11.82, 5.29 -11.99 C3.27 -12.16, 0.78 -10.55, -0.7 -9.85 C-2.18 -9.16, -2.79 -8.98, -3.58 -7.81 C-4.38 -6.65, -5.15 -4.2, -5.46 -2.88 C-5.78 -1.55, -6.56 -0.32, -5.47 0.14 C-4.39 0.6, 0.35 -0.09, 1.06 -0.1 M0.37 -0.28 C0.39 0.83, 0.22 6.47, 1.88 8.14 C3.54 9.81, 8.55 11.04, 10.32 9.73 C12.08 8.41, 11.36 1.93, 12.46 0.25 C13.55 -1.43, 16.23 0.51, 16.91 -0.36 C17.58 -1.23, 17.38 -3.34, 16.48 -4.97 C15.59 -6.6, 13.56 -9.44, 11.53 -10.14 C9.5 -10.85, 6.02 -9.56, 4.29 -9.2 C2.55 -8.84, 2.85 -8.67, 1.12 -7.99 C-0.62 -7.31, -5.05 -6.06, -6.1 -5.13 C-7.16 -4.19, -5.61 -3.21, -5.2 -2.39 C-4.8 -1.57, -4.26 -0.45, -3.7 -0.21 C-3.13 0.03, -2.62 -1, -1.81 -0.98" stroke="#1e1e1e" stroke-width="1" fill="none"></path></g></g><mask></mask><g stroke-linecap="round"><g transform="translate(389.0622238383188 131.4052068983144) rotate(303.85378448130723 6.198343345574102 -0.42650179516505915)" fill-rule="evenodd"><path d="M-1.55 -0.5 C-1.98 1.29, -3.65 9.2, -1.45 10.86 C0.74 12.52, 9.73 10.94, 11.6 9.46 C13.47 7.98, 8.67 3.64, 9.75 1.98 C10.82 0.32, 17.35 0.82, 18.06 -0.5 C18.76 -1.82, 14.51 -4.17, 13.97 -5.93 C13.42 -7.69, 16.42 -9.93, 14.8 -11.07 C13.17 -12.2, 6.69 -12.78, 4.22 -12.73 C1.75 -12.68, 1.24 -11.9, -0.03 -10.76 C-1.29 -9.63, -2.74 -7.31, -3.36 -5.92 C-3.98 -4.54, -3.19 -3.58, -3.74 -2.45 C-4.3 -1.31, -7.31 0.18, -6.7 0.89 C-6.1 1.6, -1.38 1.66, -0.12 1.81" stroke="none" stroke-width="0" fill="#e9ecef" fill-rule="evenodd"></path><path d="M-1.13 0.5 C-1.02 2.27, -1 8.74, 0.95 10.23 C2.91 11.72, 8.75 11.06, 10.58 9.44 C12.42 7.82, 10.73 1.93, 11.94 0.5 C13.15 -0.92, 17.31 1.82, 17.84 0.9 C18.37 -0.02, 16.15 -3.49, 15.11 -5.01 C14.07 -6.54, 13.41 -7.23, 11.61 -8.25 C9.8 -9.26, 6.41 -10.82, 4.25 -11.1 C2.1 -11.39, 0.06 -10.85, -1.34 -9.96 C-2.74 -9.07, -3.47 -6.91, -4.15 -5.76 C-4.83 -4.61, -5.38 -4.09, -5.44 -3.09 C-5.5 -2.08, -5.54 -0.38, -4.5 0.28 C-3.47 0.94, -0.09 0.77, 0.76 0.89 M0.48 -0.28 C0.48 1.15, -1.62 6.55, 0.46 8.33 C2.53 10.11, 10.93 11.61, 12.93 10.4 C14.93 9.2, 11.87 2.6, 12.45 1.09 C13.04 -0.43, 15.84 2.53, 16.43 1.31 C17.01 0.09, 16.76 -4.47, 15.99 -6.22 C15.22 -7.98, 13.44 -8.34, 11.83 -9.22 C10.23 -10.11, 8.32 -11.69, 6.37 -11.51 C4.42 -11.33, 1.76 -9.13, 0.15 -8.15 C-1.46 -7.18, -2.42 -6.56, -3.31 -5.65 C-4.2 -4.75, -4.75 -3.66, -5.18 -2.71 C-5.6 -1.77, -6.97 -0.54, -5.88 0 C-4.78 0.54, 0.38 0.32, 1.4 0.53" stroke="#1e1e1e" stroke-width="1" fill="none"></path></g></g><mask></mask></svg>